G75*
G70*
%OFA0B0*%
%FSLAX24Y24*%
%IPPOS*%
%LPD*%
%AMOC8*
5,1,8,0,0,1.08239X$1,22.5*
%
%ADD10C,0.1380*%
%ADD11C,0.0600*%
%ADD12C,0.0640*%
%ADD13R,0.0595X0.0595*%
%ADD14C,0.0595*%
%ADD15C,0.0680*%
%ADD16OC8,0.0700*%
%ADD17C,0.0700*%
%ADD18R,0.0780X0.0780*%
%ADD19C,0.0780*%
%ADD20OC8,0.0680*%
D10*
X001401Y001401D03*
X001401Y007901D03*
X015901Y007901D03*
X015901Y001401D03*
D11*
X008411Y002151D02*
X007891Y002151D01*
X007891Y003151D02*
X008411Y003151D01*
X008411Y004151D02*
X007891Y004151D01*
X007891Y005151D02*
X008411Y005151D01*
X005411Y005151D02*
X004891Y005151D01*
X004891Y004151D02*
X005411Y004151D01*
X005411Y003151D02*
X004891Y003151D01*
X004891Y002151D02*
X005411Y002151D01*
D12*
X002431Y004651D02*
X001871Y004651D01*
X001871Y005651D02*
X002431Y005651D01*
X015371Y005651D02*
X015931Y005651D01*
X015931Y004651D02*
X015371Y004651D01*
D13*
X011151Y006401D03*
D14*
X012894Y006401D02*
X013409Y006401D01*
X013409Y008401D02*
X012894Y008401D01*
X011409Y008401D02*
X010894Y008401D01*
D15*
X012151Y007901D03*
X012151Y006901D03*
D16*
X003651Y007401D03*
D17*
X002651Y007401D03*
D18*
X008151Y008151D03*
D19*
X007151Y008151D03*
X006151Y008151D03*
X006151Y007151D03*
X007151Y007151D03*
X008151Y007151D03*
D20*
X009151Y005151D03*
X009151Y004151D03*
X009151Y003151D03*
X009151Y002151D03*
X007151Y000901D03*
X006151Y000901D03*
X003651Y001151D03*
X003651Y005151D03*
X013151Y005151D03*
X013151Y004151D03*
X013151Y003151D03*
X013151Y002151D03*
M02*
