G75*
G70*
%OFA0B0*%
%FSLAX24Y24*%
%IPPOS*%
%LPD*%
%AMOC8*
5,1,8,0,0,1.08239X$1,22.5*
%
%ADD10C,0.0520*%
%ADD11C,0.0560*%
%ADD12R,0.0515X0.0515*%
%ADD13C,0.0515*%
%ADD14C,0.0600*%
%ADD15OC8,0.0620*%
%ADD16C,0.0620*%
%ADD17R,0.0700X0.0700*%
%ADD18C,0.0700*%
%ADD19OC8,0.0600*%
%ADD20C,0.0100*%
%ADD21C,0.0160*%
D10*
X004891Y002151D02*
X005411Y002151D01*
X005411Y003151D02*
X004891Y003151D01*
X004891Y004151D02*
X005411Y004151D01*
X005411Y005151D02*
X004891Y005151D01*
X007891Y005151D02*
X008411Y005151D01*
X008411Y004151D02*
X007891Y004151D01*
X007891Y003151D02*
X008411Y003151D01*
X008411Y002151D02*
X007891Y002151D01*
D11*
X002431Y004651D02*
X001871Y004651D01*
X001871Y005651D02*
X002431Y005651D01*
X015371Y005651D02*
X015931Y005651D01*
X015931Y004651D02*
X015371Y004651D01*
D12*
X011151Y006401D03*
D13*
X012894Y006401D02*
X013409Y006401D01*
X013409Y008401D02*
X012894Y008401D01*
X011409Y008401D02*
X010894Y008401D01*
D14*
X012151Y007901D03*
X012151Y006901D03*
D15*
X003651Y007401D03*
D16*
X002651Y007401D03*
D17*
X008151Y008151D03*
D18*
X007151Y008151D03*
X006151Y008151D03*
X006151Y007151D03*
X007151Y007151D03*
X008151Y007151D03*
D19*
X009151Y005151D03*
X009151Y004151D03*
X009151Y003151D03*
X009151Y002151D03*
X007151Y000901D03*
X006151Y000901D03*
X003651Y001151D03*
X003651Y005151D03*
X013151Y005151D03*
X013151Y004151D03*
X013151Y003151D03*
X013151Y002151D03*
D20*
X000401Y000403D02*
X000403Y008899D01*
X016836Y008899D01*
X016836Y000403D01*
X000401Y000403D01*
X000401Y000447D02*
X016836Y000447D01*
X016836Y000545D02*
X016187Y000545D01*
X016080Y000501D02*
X016411Y000638D01*
X016664Y000891D01*
X016801Y001222D01*
X016801Y001580D01*
X016664Y001911D01*
X016411Y002164D01*
X016080Y002301D01*
X015722Y002301D01*
X015391Y002164D01*
X015138Y001911D01*
X015001Y001580D01*
X015001Y001222D01*
X015138Y000891D01*
X015391Y000638D01*
X015722Y000501D01*
X016080Y000501D01*
X016417Y000644D02*
X016836Y000644D01*
X016836Y000742D02*
X016515Y000742D01*
X016614Y000841D02*
X016836Y000841D01*
X016836Y000940D02*
X016684Y000940D01*
X016725Y001038D02*
X016836Y001038D01*
X016836Y001137D02*
X016766Y001137D01*
X016801Y001235D02*
X016836Y001235D01*
X016836Y001334D02*
X016801Y001334D01*
X016801Y001432D02*
X016836Y001432D01*
X016836Y001531D02*
X016801Y001531D01*
X016781Y001629D02*
X016836Y001629D01*
X016836Y001728D02*
X016740Y001728D01*
X016699Y001826D02*
X016836Y001826D01*
X016836Y001925D02*
X016650Y001925D01*
X016552Y002024D02*
X016836Y002024D01*
X016836Y002122D02*
X016453Y002122D01*
X016275Y002221D02*
X016836Y002221D01*
X016836Y002319D02*
X013581Y002319D01*
X013581Y002329D02*
X013329Y002581D01*
X012973Y002581D01*
X012721Y002329D01*
X012721Y001973D01*
X012973Y001721D01*
X013329Y001721D01*
X013581Y001973D01*
X013581Y002329D01*
X013493Y002418D02*
X016836Y002418D01*
X016836Y002516D02*
X013394Y002516D01*
X013329Y002721D02*
X013581Y002973D01*
X013581Y003329D01*
X013329Y003581D01*
X012973Y003581D01*
X012721Y003329D01*
X012721Y002973D01*
X012973Y002721D01*
X013329Y002721D01*
X013420Y002812D02*
X016836Y002812D01*
X016836Y002910D02*
X013518Y002910D01*
X013581Y003009D02*
X016836Y003009D01*
X016836Y003107D02*
X013581Y003107D01*
X013581Y003206D02*
X016836Y003206D01*
X016836Y003305D02*
X013581Y003305D01*
X013507Y003403D02*
X016836Y003403D01*
X016836Y003502D02*
X013409Y003502D01*
X013329Y003721D02*
X012973Y003721D01*
X012721Y003973D01*
X012721Y004329D01*
X012973Y004581D01*
X013329Y004581D01*
X013581Y004329D01*
X013581Y003973D01*
X013329Y003721D01*
X013405Y003797D02*
X016836Y003797D01*
X016836Y003699D02*
X007361Y003699D01*
X007361Y003797D02*
X007726Y003797D01*
X007670Y003821D02*
X007814Y003761D01*
X008489Y003761D01*
X008632Y003821D01*
X008742Y003930D01*
X008748Y003946D01*
X008973Y003721D01*
X009329Y003721D01*
X009581Y003973D01*
X009581Y004329D01*
X009329Y004581D01*
X008973Y004581D01*
X008748Y004356D01*
X008742Y004372D01*
X008632Y004482D01*
X008489Y004541D01*
X007814Y004541D01*
X007670Y004482D01*
X007561Y004372D01*
X007501Y004229D01*
X007501Y004074D01*
X007561Y003930D01*
X007670Y003821D01*
X007595Y003896D02*
X007361Y003896D01*
X007361Y003994D02*
X007534Y003994D01*
X007501Y004093D02*
X007361Y004093D01*
X007361Y004191D02*
X007501Y004191D01*
X007527Y004290D02*
X007361Y004290D01*
X007361Y004389D02*
X007577Y004389D01*
X007683Y004487D02*
X007361Y004487D01*
X007361Y004564D02*
X007644Y004847D01*
X007670Y004821D01*
X007814Y004761D01*
X008489Y004761D01*
X008632Y004821D01*
X008742Y004930D01*
X008748Y004946D01*
X008973Y004721D01*
X009329Y004721D01*
X009581Y004973D01*
X009581Y005329D01*
X009331Y005579D01*
X009331Y006077D01*
X009976Y006721D01*
X010772Y006721D01*
X010764Y006712D01*
X010764Y006090D01*
X010840Y006014D01*
X011462Y006014D01*
X011539Y006090D01*
X011539Y006712D01*
X011530Y006721D01*
X011760Y006721D01*
X011787Y006658D01*
X011908Y006537D01*
X012066Y006471D01*
X012237Y006471D01*
X012395Y006537D01*
X012516Y006658D01*
X012581Y006816D01*
X012581Y006987D01*
X012516Y007145D01*
X012395Y007266D01*
X012237Y007331D01*
X012066Y007331D01*
X011908Y007266D01*
X011787Y007145D01*
X011760Y007081D01*
X009976Y007081D01*
X009827Y007081D01*
X009077Y006331D01*
X008971Y006226D01*
X008971Y005586D01*
X008476Y006081D01*
X008327Y006081D01*
X006827Y006081D01*
X006721Y005976D01*
X006577Y005831D01*
X006471Y005726D01*
X006471Y003726D01*
X006077Y003331D01*
X005759Y003331D01*
X005742Y003372D01*
X005632Y003482D01*
X005489Y003541D01*
X004814Y003541D01*
X004670Y003482D01*
X004561Y003372D01*
X004501Y003229D01*
X004501Y003074D01*
X004561Y002930D01*
X004670Y002821D01*
X004814Y002761D01*
X005489Y002761D01*
X005632Y002821D01*
X005742Y002930D01*
X005759Y002971D01*
X006226Y002971D01*
X006331Y003077D01*
X006831Y003577D01*
X006831Y003726D01*
X006831Y005577D01*
X006976Y005721D01*
X008327Y005721D01*
X008519Y005528D01*
X008489Y005541D01*
X007814Y005541D01*
X007670Y005482D01*
X007561Y005372D01*
X007550Y005347D01*
X007064Y004861D01*
X006941Y004738D01*
X006941Y001299D01*
X006721Y001079D01*
X006721Y000723D01*
X006973Y000471D01*
X007329Y000471D01*
X007581Y000723D01*
X007581Y001079D01*
X007361Y001299D01*
X007361Y004564D01*
X007383Y004586D02*
X014941Y004586D01*
X014941Y004566D02*
X015007Y004408D01*
X015128Y004287D01*
X015286Y004221D01*
X015611Y004221D01*
X015611Y004611D01*
X015691Y004611D01*
X015691Y004221D01*
X016017Y004221D01*
X016175Y004287D01*
X016296Y004408D01*
X016361Y004566D01*
X016361Y004611D01*
X015691Y004611D01*
X015691Y004691D01*
X015611Y004691D01*
X015611Y004611D01*
X014941Y004611D01*
X014941Y004566D01*
X014974Y004487D02*
X013423Y004487D01*
X013522Y004389D02*
X015026Y004389D01*
X015124Y004290D02*
X013581Y004290D01*
X013581Y004191D02*
X016836Y004191D01*
X016836Y004093D02*
X013581Y004093D01*
X013581Y003994D02*
X016836Y003994D01*
X016836Y003896D02*
X013504Y003896D01*
X012897Y003797D02*
X009405Y003797D01*
X009504Y003896D02*
X012798Y003896D01*
X012721Y003994D02*
X009581Y003994D01*
X009581Y004093D02*
X012721Y004093D01*
X012721Y004191D02*
X009581Y004191D01*
X009581Y004290D02*
X012721Y004290D01*
X012780Y004389D02*
X009522Y004389D01*
X009423Y004487D02*
X012879Y004487D01*
X012965Y004701D02*
X013121Y004701D01*
X013121Y005121D01*
X013181Y005121D01*
X013181Y004701D01*
X013338Y004701D01*
X013601Y004965D01*
X013601Y005121D01*
X013181Y005121D01*
X013181Y005181D01*
X013601Y005181D01*
X013601Y005338D01*
X013338Y005601D01*
X013181Y005601D01*
X013181Y005181D01*
X013121Y005181D01*
X013121Y005121D01*
X012701Y005121D01*
X012701Y004965D01*
X012965Y004701D01*
X012883Y004783D02*
X009391Y004783D01*
X009489Y004881D02*
X012785Y004881D01*
X012701Y004980D02*
X009581Y004980D01*
X009581Y005078D02*
X012701Y005078D01*
X012701Y005181D02*
X013121Y005181D01*
X013121Y005601D01*
X012965Y005601D01*
X012701Y005338D01*
X012701Y005181D01*
X012701Y005275D02*
X009581Y005275D01*
X009581Y005177D02*
X013121Y005177D01*
X013181Y005177D02*
X016836Y005177D01*
X016836Y005275D02*
X016095Y005275D01*
X016163Y005304D02*
X016279Y005419D01*
X016341Y005570D01*
X016341Y005733D01*
X016279Y005883D01*
X016163Y005999D01*
X016013Y006061D01*
X015290Y006061D01*
X015139Y005999D01*
X015024Y005883D01*
X014961Y005733D01*
X014961Y005570D01*
X015024Y005419D01*
X015139Y005304D01*
X015290Y005241D01*
X016013Y005241D01*
X016163Y005304D01*
X016234Y005374D02*
X016836Y005374D01*
X016836Y005473D02*
X016301Y005473D01*
X016341Y005571D02*
X016836Y005571D01*
X016836Y005670D02*
X016341Y005670D01*
X016326Y005768D02*
X016836Y005768D01*
X016836Y005867D02*
X016286Y005867D01*
X016197Y005965D02*
X016836Y005965D01*
X016836Y006064D02*
X013607Y006064D01*
X013628Y006073D02*
X013737Y006182D01*
X013796Y006324D01*
X013796Y006478D01*
X013737Y006621D01*
X013628Y006730D01*
X013486Y006789D01*
X012817Y006789D01*
X012674Y006730D01*
X012565Y006621D01*
X012506Y006478D01*
X012506Y006324D01*
X012565Y006182D01*
X012674Y006073D01*
X012817Y006014D01*
X013486Y006014D01*
X013628Y006073D01*
X013718Y006162D02*
X016836Y006162D01*
X016836Y006261D02*
X013770Y006261D01*
X013796Y006359D02*
X016836Y006359D01*
X016836Y006458D02*
X013796Y006458D01*
X013764Y006556D02*
X016836Y006556D01*
X016836Y006655D02*
X013703Y006655D01*
X013570Y006754D02*
X016836Y006754D01*
X016836Y006852D02*
X012581Y006852D01*
X012581Y006951D02*
X016836Y006951D01*
X016836Y007049D02*
X016196Y007049D01*
X016080Y007001D02*
X016411Y007138D01*
X016664Y007391D01*
X016801Y007722D01*
X016801Y008080D01*
X016664Y008411D01*
X016411Y008664D01*
X016080Y008801D01*
X015722Y008801D01*
X015391Y008664D01*
X015138Y008411D01*
X015001Y008080D01*
X015001Y007722D01*
X015138Y007391D01*
X015391Y007138D01*
X015722Y007001D01*
X016080Y007001D01*
X016421Y007148D02*
X016836Y007148D01*
X016836Y007246D02*
X016519Y007246D01*
X016618Y007345D02*
X016836Y007345D01*
X016836Y007443D02*
X016686Y007443D01*
X016726Y007542D02*
X016836Y007542D01*
X016836Y007640D02*
X016767Y007640D01*
X016801Y007739D02*
X016836Y007739D01*
X016836Y007838D02*
X016801Y007838D01*
X016801Y007936D02*
X016836Y007936D01*
X016836Y008035D02*
X016801Y008035D01*
X016779Y008133D02*
X016836Y008133D01*
X016836Y008232D02*
X016738Y008232D01*
X016698Y008330D02*
X016836Y008330D01*
X016836Y008429D02*
X016646Y008429D01*
X016548Y008527D02*
X016836Y008527D01*
X016836Y008626D02*
X016449Y008626D01*
X016265Y008724D02*
X016836Y008724D01*
X016836Y008823D02*
X000403Y008823D01*
X000403Y008724D02*
X001037Y008724D01*
X000891Y008664D02*
X000638Y008411D01*
X000501Y008080D01*
X000501Y007722D01*
X000638Y007391D01*
X000891Y007138D01*
X001222Y007001D01*
X001580Y007001D01*
X001911Y007138D01*
X002164Y007391D01*
X002301Y007722D01*
X002301Y008080D01*
X002164Y008411D01*
X001911Y008664D01*
X001580Y008801D01*
X001222Y008801D01*
X000891Y008664D01*
X000853Y008626D02*
X000403Y008626D01*
X000403Y008527D02*
X000755Y008527D01*
X000656Y008429D02*
X000403Y008429D01*
X000403Y008330D02*
X000605Y008330D01*
X000564Y008232D02*
X000402Y008232D01*
X000402Y008133D02*
X000523Y008133D01*
X000501Y008035D02*
X000402Y008035D01*
X000402Y007936D02*
X000501Y007936D01*
X000501Y007838D02*
X000402Y007838D01*
X000402Y007739D02*
X000501Y007739D01*
X000535Y007640D02*
X000402Y007640D01*
X000402Y007542D02*
X000576Y007542D01*
X000617Y007443D02*
X000402Y007443D01*
X000402Y007345D02*
X000685Y007345D01*
X000783Y007246D02*
X000402Y007246D01*
X000402Y007148D02*
X000882Y007148D01*
X001106Y007049D02*
X000402Y007049D01*
X000402Y006951D02*
X003451Y006951D01*
X003461Y006941D02*
X003621Y006941D01*
X003621Y007371D01*
X003681Y007371D01*
X003681Y006941D01*
X003842Y006941D01*
X004111Y007211D01*
X004111Y007371D01*
X003681Y007371D01*
X003681Y007431D01*
X004111Y007431D01*
X004111Y007592D01*
X003842Y007861D01*
X003681Y007861D01*
X003681Y007431D01*
X003621Y007431D01*
X003621Y007371D01*
X003191Y007371D01*
X003191Y007211D01*
X003461Y006941D01*
X003353Y007049D02*
X002921Y007049D01*
X002900Y007028D02*
X003024Y007152D01*
X003091Y007314D01*
X003091Y007489D01*
X003024Y007650D01*
X002900Y007774D01*
X002739Y007841D01*
X002564Y007841D01*
X002402Y007774D01*
X002278Y007650D01*
X002211Y007489D01*
X002211Y007314D01*
X002278Y007152D01*
X002402Y007028D01*
X002564Y006961D01*
X002739Y006961D01*
X002900Y007028D01*
X003020Y007148D02*
X003254Y007148D01*
X003191Y007246D02*
X003063Y007246D01*
X003091Y007345D02*
X003191Y007345D01*
X003191Y007431D02*
X003621Y007431D01*
X003621Y007861D01*
X003461Y007861D01*
X003191Y007592D01*
X003191Y007431D01*
X003191Y007443D02*
X003091Y007443D01*
X003069Y007542D02*
X003191Y007542D01*
X003240Y007640D02*
X003028Y007640D01*
X002936Y007739D02*
X003339Y007739D01*
X003437Y007838D02*
X002747Y007838D01*
X002555Y007838D02*
X002301Y007838D01*
X002301Y007936D02*
X005721Y007936D01*
X005744Y007879D02*
X005671Y008056D01*
X005671Y008247D01*
X005744Y008423D01*
X005879Y008558D01*
X006056Y008631D01*
X006247Y008631D01*
X006423Y008558D01*
X006558Y008423D01*
X006631Y008247D01*
X006631Y008056D01*
X006558Y007879D01*
X006423Y007744D01*
X006247Y007671D01*
X006056Y007671D01*
X005879Y007744D01*
X005744Y007879D01*
X005786Y007838D02*
X003865Y007838D01*
X003964Y007739D02*
X005892Y007739D01*
X005868Y007575D02*
X006052Y007651D01*
X006103Y007651D01*
X006103Y007200D01*
X006200Y007200D01*
X006651Y007200D01*
X006651Y007251D01*
X006575Y007434D01*
X006434Y007575D01*
X006251Y007651D01*
X006200Y007651D01*
X006200Y007200D01*
X006200Y007103D01*
X006651Y007103D01*
X006651Y007052D01*
X006575Y006868D01*
X006434Y006727D01*
X006251Y006651D01*
X006200Y006651D01*
X006200Y007102D01*
X006103Y007102D01*
X006103Y006651D01*
X006052Y006651D01*
X005868Y006727D01*
X005727Y006868D01*
X005651Y007052D01*
X005651Y007103D01*
X006102Y007103D01*
X006102Y007200D01*
X005651Y007200D01*
X005651Y007251D01*
X005727Y007434D01*
X005868Y007575D01*
X005835Y007542D02*
X004111Y007542D01*
X004111Y007443D02*
X005736Y007443D01*
X005690Y007345D02*
X004111Y007345D01*
X004111Y007246D02*
X005651Y007246D01*
X005652Y007049D02*
X003950Y007049D01*
X004048Y007148D02*
X006102Y007148D01*
X006200Y007148D02*
X006671Y007148D01*
X006671Y007056D02*
X006744Y006879D01*
X006879Y006744D01*
X007056Y006671D01*
X007247Y006671D01*
X007423Y006744D01*
X007558Y006879D01*
X007631Y007056D01*
X007631Y007247D01*
X007558Y007423D01*
X007423Y007558D01*
X007247Y007631D01*
X007056Y007631D01*
X006879Y007558D01*
X006744Y007423D01*
X006671Y007247D01*
X006671Y007056D01*
X006674Y007049D02*
X006650Y007049D01*
X006609Y006951D02*
X006715Y006951D01*
X006771Y006852D02*
X006559Y006852D01*
X006461Y006754D02*
X006870Y006754D01*
X006476Y006581D02*
X006327Y006581D01*
X006077Y006331D01*
X005971Y006226D01*
X005971Y004726D01*
X005680Y004434D01*
X005632Y004482D01*
X005489Y004541D01*
X004814Y004541D01*
X004670Y004482D01*
X004561Y004372D01*
X004501Y004229D01*
X004501Y004074D01*
X004561Y003930D01*
X004670Y003821D01*
X004814Y003761D01*
X005489Y003761D01*
X005632Y003821D01*
X005742Y003930D01*
X005782Y004028D01*
X005831Y004077D01*
X006331Y004577D01*
X006331Y004726D01*
X006331Y006077D01*
X006476Y006221D01*
X008476Y006221D01*
X008581Y006327D01*
X009976Y007721D01*
X011760Y007721D01*
X011787Y007658D01*
X011908Y007537D01*
X012066Y007471D01*
X012237Y007471D01*
X012395Y007537D01*
X012516Y007658D01*
X012581Y007816D01*
X012581Y007987D01*
X012516Y008145D01*
X012395Y008266D01*
X012237Y008331D01*
X012066Y008331D01*
X011908Y008266D01*
X011787Y008145D01*
X011760Y008081D01*
X011637Y008081D01*
X011737Y008182D01*
X011796Y008324D01*
X011796Y008478D01*
X011737Y008621D01*
X011628Y008730D01*
X011486Y008789D01*
X010817Y008789D01*
X010674Y008730D01*
X010565Y008621D01*
X010506Y008478D01*
X010506Y008324D01*
X010565Y008182D01*
X010666Y008081D01*
X009976Y008081D01*
X009827Y008081D01*
X008327Y006581D01*
X006476Y006581D01*
X006302Y006556D02*
X000402Y006556D01*
X000402Y006458D02*
X006203Y006458D01*
X006105Y006359D02*
X000402Y006359D01*
X000402Y006261D02*
X006006Y006261D01*
X005971Y006162D02*
X000402Y006162D01*
X000402Y006064D02*
X005971Y006064D01*
X005971Y005965D02*
X002697Y005965D01*
X002663Y005999D02*
X002513Y006061D01*
X001790Y006061D01*
X001639Y005999D01*
X001524Y005883D01*
X001461Y005733D01*
X001461Y005570D01*
X001524Y005419D01*
X001639Y005304D01*
X001790Y005241D01*
X002513Y005241D01*
X002663Y005304D01*
X002779Y005419D01*
X002841Y005570D01*
X002841Y005733D01*
X002779Y005883D01*
X002663Y005999D01*
X002786Y005867D02*
X005971Y005867D01*
X005971Y005768D02*
X002826Y005768D01*
X002841Y005670D02*
X005971Y005670D01*
X005971Y005571D02*
X003839Y005571D01*
X003829Y005581D02*
X003473Y005581D01*
X003221Y005329D01*
X003221Y004973D01*
X003473Y004721D01*
X003829Y004721D01*
X004081Y004973D01*
X004081Y005329D01*
X003829Y005581D01*
X003938Y005473D02*
X004661Y005473D01*
X004670Y005482D02*
X004561Y005372D01*
X004501Y005229D01*
X004501Y005074D01*
X004561Y004930D01*
X004670Y004821D01*
X004814Y004761D01*
X005489Y004761D01*
X005632Y004821D01*
X005742Y004930D01*
X005801Y005074D01*
X005801Y005229D01*
X005742Y005372D01*
X005632Y005482D01*
X005489Y005541D01*
X004814Y005541D01*
X004670Y005482D01*
X004562Y005374D02*
X004036Y005374D01*
X004081Y005275D02*
X004521Y005275D01*
X004501Y005177D02*
X004081Y005177D01*
X004081Y005078D02*
X004501Y005078D01*
X004540Y004980D02*
X004081Y004980D01*
X003989Y004881D02*
X004610Y004881D01*
X004762Y004783D02*
X003891Y004783D01*
X003412Y004783D02*
X002842Y004783D01*
X002861Y004737D02*
X002796Y004895D01*
X002675Y005016D01*
X002517Y005081D01*
X002191Y005081D01*
X002191Y004691D01*
X002111Y004691D01*
X002111Y004611D01*
X002191Y004611D01*
X002191Y004221D01*
X002517Y004221D01*
X002675Y004287D01*
X002796Y004408D01*
X002861Y004566D01*
X002861Y004611D01*
X002191Y004611D01*
X002191Y004691D01*
X002861Y004691D01*
X002861Y004737D01*
X002861Y004586D02*
X005831Y004586D01*
X005930Y004684D02*
X002191Y004684D01*
X002111Y004684D02*
X000402Y004684D01*
X000402Y004586D02*
X001441Y004586D01*
X001441Y004566D02*
X001507Y004408D01*
X001628Y004287D01*
X001786Y004221D01*
X002111Y004221D01*
X002111Y004611D01*
X001441Y004611D01*
X001441Y004566D01*
X001474Y004487D02*
X000402Y004487D01*
X000402Y004389D02*
X001526Y004389D01*
X001624Y004290D02*
X000401Y004290D01*
X000401Y004191D02*
X004501Y004191D01*
X004501Y004093D02*
X000401Y004093D01*
X000401Y003994D02*
X004534Y003994D01*
X004595Y003896D02*
X000401Y003896D01*
X000401Y003797D02*
X004726Y003797D01*
X004718Y003502D02*
X000401Y003502D01*
X000401Y003600D02*
X006346Y003600D01*
X006444Y003699D02*
X000401Y003699D01*
X000401Y003403D02*
X004592Y003403D01*
X004533Y003305D02*
X000401Y003305D01*
X000401Y003206D02*
X004501Y003206D01*
X004501Y003107D02*
X000401Y003107D01*
X000401Y003009D02*
X004528Y003009D01*
X004580Y002910D02*
X000401Y002910D01*
X000401Y002812D02*
X004691Y002812D01*
X004810Y002561D02*
X004659Y002499D01*
X004544Y002383D01*
X004481Y002233D01*
X004481Y002181D01*
X005121Y002181D01*
X005121Y002121D01*
X005181Y002121D01*
X005181Y001741D01*
X005493Y001741D01*
X005643Y001804D01*
X005759Y001919D01*
X005821Y002070D01*
X005821Y002121D01*
X005181Y002121D01*
X005181Y002181D01*
X005121Y002181D01*
X005121Y002561D01*
X004810Y002561D01*
X004701Y002516D02*
X000401Y002516D01*
X000401Y002615D02*
X006941Y002615D01*
X006941Y002713D02*
X000401Y002713D01*
X000401Y002418D02*
X004578Y002418D01*
X004517Y002319D02*
X000401Y002319D01*
X000401Y002221D02*
X001028Y002221D01*
X000891Y002164D02*
X000638Y001911D01*
X000501Y001580D01*
X000501Y001222D01*
X000638Y000891D01*
X000891Y000638D01*
X001222Y000501D01*
X001580Y000501D01*
X001911Y000638D01*
X002164Y000891D01*
X002301Y001222D01*
X002301Y001580D01*
X002164Y001911D01*
X001911Y002164D01*
X001580Y002301D01*
X001222Y002301D01*
X000891Y002164D01*
X000849Y002122D02*
X000401Y002122D01*
X000401Y002024D02*
X000751Y002024D01*
X000652Y001925D02*
X000401Y001925D01*
X000401Y001826D02*
X000603Y001826D01*
X000562Y001728D02*
X000401Y001728D01*
X000401Y001629D02*
X000522Y001629D01*
X000501Y001531D02*
X000401Y001531D01*
X000401Y001432D02*
X000501Y001432D01*
X000501Y001334D02*
X000401Y001334D01*
X000401Y001235D02*
X000501Y001235D01*
X000537Y001137D02*
X000401Y001137D01*
X000401Y001038D02*
X000577Y001038D01*
X000618Y000940D02*
X000401Y000940D01*
X000401Y000841D02*
X000689Y000841D01*
X000787Y000742D02*
X000401Y000742D01*
X000401Y000644D02*
X000886Y000644D01*
X001115Y000545D02*
X000401Y000545D01*
X001687Y000545D02*
X005871Y000545D01*
X005965Y000451D02*
X006121Y000451D01*
X006121Y000871D01*
X006181Y000871D01*
X006181Y000451D01*
X006338Y000451D01*
X006601Y000715D01*
X006601Y000871D01*
X006181Y000871D01*
X006181Y000931D01*
X006601Y000931D01*
X006601Y001088D01*
X006338Y001351D01*
X006181Y001351D01*
X006181Y000931D01*
X006121Y000931D01*
X006121Y000871D01*
X005701Y000871D01*
X005701Y000715D01*
X005965Y000451D01*
X006121Y000545D02*
X006181Y000545D01*
X006181Y000644D02*
X006121Y000644D01*
X006121Y000742D02*
X006181Y000742D01*
X006181Y000841D02*
X006121Y000841D01*
X006121Y000931D02*
X005701Y000931D01*
X005701Y001088D01*
X005965Y001351D01*
X006121Y001351D01*
X006121Y000931D01*
X006121Y000940D02*
X006181Y000940D01*
X006181Y001038D02*
X006121Y001038D01*
X006121Y001137D02*
X006181Y001137D01*
X006181Y001235D02*
X006121Y001235D01*
X006121Y001334D02*
X006181Y001334D01*
X006355Y001334D02*
X006941Y001334D01*
X006941Y001432D02*
X003978Y001432D01*
X004077Y001334D02*
X005947Y001334D01*
X005849Y001235D02*
X004081Y001235D01*
X004081Y001329D02*
X003829Y001581D01*
X003473Y001581D01*
X003221Y001329D01*
X003221Y000973D01*
X003473Y000721D01*
X003829Y000721D01*
X004081Y000973D01*
X004081Y001329D01*
X004081Y001137D02*
X005750Y001137D01*
X005701Y001038D02*
X004081Y001038D01*
X004048Y000940D02*
X005701Y000940D01*
X005701Y000841D02*
X003949Y000841D01*
X003851Y000742D02*
X005701Y000742D01*
X005772Y000644D02*
X001917Y000644D01*
X002015Y000742D02*
X003452Y000742D01*
X003353Y000841D02*
X002114Y000841D01*
X002184Y000940D02*
X003255Y000940D01*
X003221Y001038D02*
X002225Y001038D01*
X002266Y001137D02*
X003221Y001137D01*
X003221Y001235D02*
X002301Y001235D01*
X002301Y001334D02*
X003226Y001334D01*
X003324Y001432D02*
X002301Y001432D01*
X002301Y001531D02*
X003423Y001531D01*
X003880Y001531D02*
X006941Y001531D01*
X006941Y001629D02*
X002281Y001629D01*
X002240Y001728D02*
X006941Y001728D01*
X006941Y001826D02*
X005666Y001826D01*
X005761Y001925D02*
X006941Y001925D01*
X006941Y002024D02*
X005802Y002024D01*
X005821Y002181D02*
X005821Y002233D01*
X005759Y002383D01*
X005643Y002499D01*
X005493Y002561D01*
X005181Y002561D01*
X005181Y002181D01*
X005821Y002181D01*
X005821Y002221D02*
X006941Y002221D01*
X006941Y002319D02*
X005785Y002319D01*
X005724Y002418D02*
X006941Y002418D01*
X006941Y002516D02*
X005601Y002516D01*
X005611Y002812D02*
X006941Y002812D01*
X006941Y002910D02*
X005722Y002910D01*
X006151Y003151D02*
X005151Y003151D01*
X005584Y003502D02*
X006247Y003502D01*
X006149Y003403D02*
X005711Y003403D01*
X006151Y003151D02*
X006651Y003651D01*
X006651Y005651D01*
X006901Y005901D01*
X008401Y005901D01*
X009151Y005151D01*
X009151Y006151D01*
X009901Y006901D01*
X012151Y006901D01*
X012555Y006754D02*
X012732Y006754D01*
X012600Y006655D02*
X012513Y006655D01*
X012539Y006556D02*
X012415Y006556D01*
X012506Y006458D02*
X011539Y006458D01*
X011539Y006556D02*
X011888Y006556D01*
X011789Y006655D02*
X011539Y006655D01*
X011539Y006359D02*
X012506Y006359D01*
X012532Y006261D02*
X011539Y006261D01*
X011539Y006162D02*
X012585Y006162D01*
X012696Y006064D02*
X011513Y006064D01*
X010790Y006064D02*
X009331Y006064D01*
X009331Y005965D02*
X015105Y005965D01*
X015017Y005867D02*
X009331Y005867D01*
X009331Y005768D02*
X014976Y005768D01*
X014961Y005670D02*
X009331Y005670D01*
X009339Y005571D02*
X012935Y005571D01*
X012836Y005473D02*
X009438Y005473D01*
X009536Y005374D02*
X012738Y005374D01*
X013121Y005374D02*
X013181Y005374D01*
X013181Y005473D02*
X013121Y005473D01*
X013121Y005571D02*
X013181Y005571D01*
X013368Y005571D02*
X014961Y005571D01*
X015001Y005473D02*
X013466Y005473D01*
X013565Y005374D02*
X015069Y005374D01*
X015207Y005275D02*
X013601Y005275D01*
X013601Y005078D02*
X015279Y005078D01*
X015286Y005081D02*
X015128Y005016D01*
X015007Y004895D01*
X014941Y004737D01*
X014941Y004691D01*
X015611Y004691D01*
X015611Y005081D01*
X015286Y005081D01*
X015092Y004980D02*
X013601Y004980D01*
X013518Y004881D02*
X015001Y004881D01*
X014960Y004783D02*
X013419Y004783D01*
X013181Y004783D02*
X013121Y004783D01*
X013121Y004881D02*
X013181Y004881D01*
X013181Y004980D02*
X013121Y004980D01*
X013121Y005078D02*
X013181Y005078D01*
X013181Y005275D02*
X013121Y005275D01*
X010764Y006162D02*
X009417Y006162D01*
X009515Y006261D02*
X010764Y006261D01*
X010764Y006359D02*
X009614Y006359D01*
X009712Y006458D02*
X010764Y006458D01*
X010764Y006556D02*
X009811Y006556D01*
X009910Y006655D02*
X010764Y006655D01*
X009795Y007049D02*
X009304Y007049D01*
X009402Y007148D02*
X011790Y007148D01*
X011888Y007246D02*
X009501Y007246D01*
X009599Y007345D02*
X015185Y007345D01*
X015283Y007246D02*
X012414Y007246D01*
X012513Y007148D02*
X015382Y007148D01*
X015606Y007049D02*
X012555Y007049D01*
X012400Y007542D02*
X015076Y007542D01*
X015035Y007640D02*
X012499Y007640D01*
X012549Y007739D02*
X015001Y007739D01*
X015001Y007838D02*
X012581Y007838D01*
X012581Y007936D02*
X015001Y007936D01*
X015001Y008035D02*
X013589Y008035D01*
X013639Y008056D02*
X013754Y008170D01*
X013816Y008320D01*
X013816Y008372D01*
X013180Y008372D01*
X013180Y007994D01*
X013490Y007994D01*
X013639Y008056D01*
X013717Y008133D02*
X015023Y008133D01*
X015064Y008232D02*
X013779Y008232D01*
X013816Y008330D02*
X015105Y008330D01*
X015156Y008429D02*
X013180Y008429D01*
X013180Y008430D02*
X013816Y008430D01*
X013816Y008482D01*
X013754Y008632D01*
X013639Y008747D01*
X013490Y008809D01*
X013180Y008809D01*
X013180Y008430D01*
X013122Y008430D01*
X013122Y008372D01*
X013180Y008372D01*
X013180Y008430D01*
X013122Y008430D02*
X013122Y008809D01*
X012813Y008809D01*
X012663Y008747D01*
X012548Y008632D01*
X012486Y008482D01*
X012486Y008430D01*
X013122Y008430D01*
X013122Y008429D02*
X011796Y008429D01*
X011796Y008330D02*
X012064Y008330D01*
X012239Y008330D02*
X012486Y008330D01*
X012486Y008320D02*
X012548Y008170D01*
X012663Y008056D01*
X012813Y007994D01*
X013122Y007994D01*
X013122Y008372D01*
X012486Y008372D01*
X012486Y008320D01*
X012523Y008232D02*
X012429Y008232D01*
X012520Y008133D02*
X012585Y008133D01*
X012561Y008035D02*
X012714Y008035D01*
X013122Y008035D02*
X013180Y008035D01*
X013180Y008133D02*
X013122Y008133D01*
X013122Y008232D02*
X013180Y008232D01*
X013180Y008330D02*
X013122Y008330D01*
X013122Y008527D02*
X013180Y008527D01*
X013180Y008626D02*
X013122Y008626D01*
X013122Y008724D02*
X013180Y008724D01*
X013662Y008724D02*
X015537Y008724D01*
X015353Y008626D02*
X013757Y008626D01*
X013797Y008527D02*
X015255Y008527D01*
X015117Y007443D02*
X009698Y007443D01*
X009796Y007542D02*
X011902Y007542D01*
X011804Y007640D02*
X009895Y007640D01*
X009901Y007901D02*
X008401Y006401D01*
X006401Y006401D01*
X006151Y006151D01*
X006151Y004651D01*
X005651Y004151D01*
X005151Y004151D01*
X005707Y003896D02*
X006471Y003896D01*
X006471Y003994D02*
X005768Y003994D01*
X005847Y004093D02*
X006471Y004093D01*
X006471Y004191D02*
X005946Y004191D01*
X006045Y004290D02*
X006471Y004290D01*
X006471Y004389D02*
X006143Y004389D01*
X006242Y004487D02*
X006471Y004487D01*
X006471Y004586D02*
X006331Y004586D01*
X006331Y004684D02*
X006471Y004684D01*
X006471Y004783D02*
X006331Y004783D01*
X006331Y004881D02*
X006471Y004881D01*
X006471Y004980D02*
X006331Y004980D01*
X006331Y005078D02*
X006471Y005078D01*
X006471Y005177D02*
X006331Y005177D01*
X006331Y005275D02*
X006471Y005275D01*
X006471Y005374D02*
X006331Y005374D01*
X006331Y005473D02*
X006471Y005473D01*
X006471Y005571D02*
X006331Y005571D01*
X006331Y005670D02*
X006471Y005670D01*
X006514Y005768D02*
X006331Y005768D01*
X006331Y005867D02*
X006612Y005867D01*
X006711Y005965D02*
X006331Y005965D01*
X006331Y006064D02*
X006809Y006064D01*
X006417Y006162D02*
X008971Y006162D01*
X008971Y006064D02*
X008493Y006064D01*
X008592Y005965D02*
X008971Y005965D01*
X008971Y005867D02*
X008690Y005867D01*
X008789Y005768D02*
X008971Y005768D01*
X008971Y005670D02*
X008887Y005670D01*
X008477Y005571D02*
X006831Y005571D01*
X006831Y005473D02*
X007661Y005473D01*
X007562Y005374D02*
X006831Y005374D01*
X006831Y005275D02*
X007479Y005275D01*
X007380Y005177D02*
X006831Y005177D01*
X006831Y005078D02*
X007281Y005078D01*
X007183Y004980D02*
X006831Y004980D01*
X006831Y004881D02*
X007084Y004881D01*
X006986Y004783D02*
X006831Y004783D01*
X006831Y004684D02*
X006941Y004684D01*
X006941Y004586D02*
X006831Y004586D01*
X006831Y004487D02*
X006941Y004487D01*
X006941Y004389D02*
X006831Y004389D01*
X006831Y004290D02*
X006941Y004290D01*
X006941Y004191D02*
X006831Y004191D01*
X006831Y004093D02*
X006941Y004093D01*
X006941Y003994D02*
X006831Y003994D01*
X006831Y003896D02*
X006941Y003896D01*
X006941Y003797D02*
X006831Y003797D01*
X006831Y003699D02*
X006941Y003699D01*
X006941Y003600D02*
X006831Y003600D01*
X006756Y003502D02*
X006941Y003502D01*
X006941Y003403D02*
X006658Y003403D01*
X006559Y003305D02*
X006941Y003305D01*
X006941Y003206D02*
X006461Y003206D01*
X006362Y003107D02*
X006941Y003107D01*
X006941Y003009D02*
X006263Y003009D01*
X007361Y003009D02*
X007528Y003009D01*
X007501Y003074D02*
X007561Y002930D01*
X007670Y002821D01*
X007814Y002761D01*
X008489Y002761D01*
X008632Y002821D01*
X008742Y002930D01*
X008748Y002946D01*
X008973Y002721D01*
X009329Y002721D01*
X009581Y002973D01*
X009581Y003329D01*
X009329Y003581D01*
X008973Y003581D01*
X008748Y003356D01*
X008742Y003372D01*
X008632Y003482D01*
X008489Y003541D01*
X007814Y003541D01*
X007670Y003482D01*
X007561Y003372D01*
X007501Y003229D01*
X007501Y003074D01*
X007501Y003107D02*
X007361Y003107D01*
X007361Y003206D02*
X007501Y003206D01*
X007533Y003305D02*
X007361Y003305D01*
X007361Y003403D02*
X007592Y003403D01*
X007718Y003502D02*
X007361Y003502D01*
X007361Y003600D02*
X016836Y003600D01*
X016836Y004290D02*
X016178Y004290D01*
X016277Y004389D02*
X016836Y004389D01*
X016836Y004487D02*
X016329Y004487D01*
X016361Y004586D02*
X016836Y004586D01*
X016836Y004684D02*
X015691Y004684D01*
X015691Y004691D02*
X016361Y004691D01*
X016361Y004737D01*
X016296Y004895D01*
X016175Y005016D01*
X016017Y005081D01*
X015691Y005081D01*
X015691Y004691D01*
X015611Y004684D02*
X007481Y004684D01*
X007580Y004783D02*
X007762Y004783D01*
X008541Y004783D02*
X008912Y004783D01*
X008813Y004881D02*
X008693Y004881D01*
X008619Y004487D02*
X008879Y004487D01*
X008780Y004389D02*
X008725Y004389D01*
X008707Y003896D02*
X008798Y003896D01*
X008897Y003797D02*
X008576Y003797D01*
X008584Y003502D02*
X008894Y003502D01*
X008795Y003403D02*
X008711Y003403D01*
X009409Y003502D02*
X012894Y003502D01*
X012795Y003403D02*
X009507Y003403D01*
X009581Y003305D02*
X012721Y003305D01*
X012721Y003206D02*
X009581Y003206D01*
X009581Y003107D02*
X012721Y003107D01*
X012721Y003009D02*
X009581Y003009D01*
X009518Y002910D02*
X012784Y002910D01*
X012882Y002812D02*
X009420Y002812D01*
X009329Y002581D02*
X008973Y002581D01*
X008748Y002356D01*
X008742Y002372D01*
X008632Y002482D01*
X008489Y002541D01*
X007814Y002541D01*
X007670Y002482D01*
X007561Y002372D01*
X007501Y002229D01*
X007501Y002074D01*
X007561Y001930D01*
X007670Y001821D01*
X007814Y001761D01*
X008489Y001761D01*
X008632Y001821D01*
X008742Y001930D01*
X008748Y001946D01*
X008973Y001721D01*
X009329Y001721D01*
X009581Y001973D01*
X009581Y002329D01*
X009329Y002581D01*
X009394Y002516D02*
X012908Y002516D01*
X012810Y002418D02*
X009493Y002418D01*
X009581Y002319D02*
X012721Y002319D01*
X012721Y002221D02*
X009581Y002221D01*
X009581Y002122D02*
X012721Y002122D01*
X012721Y002024D02*
X009581Y002024D01*
X009533Y001925D02*
X012769Y001925D01*
X012868Y001826D02*
X009434Y001826D01*
X009336Y001728D02*
X012966Y001728D01*
X013336Y001728D02*
X015062Y001728D01*
X015022Y001629D02*
X007361Y001629D01*
X007361Y001531D02*
X015001Y001531D01*
X015001Y001432D02*
X007361Y001432D01*
X007361Y001334D02*
X015001Y001334D01*
X015001Y001235D02*
X007425Y001235D01*
X007524Y001137D02*
X015037Y001137D01*
X015077Y001038D02*
X007581Y001038D01*
X007581Y000940D02*
X015118Y000940D01*
X015189Y000841D02*
X007581Y000841D01*
X007581Y000742D02*
X015287Y000742D01*
X015386Y000644D02*
X007502Y000644D01*
X007403Y000545D02*
X015615Y000545D01*
X015103Y001826D02*
X013434Y001826D01*
X013533Y001925D02*
X015152Y001925D01*
X015251Y002024D02*
X013581Y002024D01*
X013581Y002122D02*
X015349Y002122D01*
X015528Y002221D02*
X013581Y002221D01*
X016836Y002615D02*
X007361Y002615D01*
X007361Y002713D02*
X016836Y002713D01*
X015691Y004290D02*
X015611Y004290D01*
X015611Y004389D02*
X015691Y004389D01*
X015691Y004487D02*
X015611Y004487D01*
X015611Y004586D02*
X015691Y004586D01*
X015691Y004783D02*
X015611Y004783D01*
X015611Y004881D02*
X015691Y004881D01*
X015691Y004980D02*
X015611Y004980D01*
X015611Y005078D02*
X015691Y005078D01*
X016023Y005078D02*
X016836Y005078D01*
X016836Y004980D02*
X016211Y004980D01*
X016301Y004881D02*
X016836Y004881D01*
X016836Y004783D02*
X016342Y004783D01*
X012151Y007901D02*
X009901Y007901D01*
X009780Y008035D02*
X008631Y008035D01*
X008631Y008133D02*
X010614Y008133D01*
X010544Y008232D02*
X008631Y008232D01*
X008631Y008330D02*
X010506Y008330D01*
X010506Y008429D02*
X008631Y008429D01*
X008631Y008527D02*
X010527Y008527D01*
X010570Y008626D02*
X008560Y008626D01*
X008555Y008631D02*
X007747Y008631D01*
X007671Y008555D01*
X007671Y007747D01*
X007747Y007671D01*
X008555Y007671D01*
X008631Y007747D01*
X008631Y008555D01*
X008555Y008631D01*
X007742Y008626D02*
X007259Y008626D01*
X007247Y008631D02*
X007056Y008631D01*
X006879Y008558D01*
X006744Y008423D01*
X006671Y008247D01*
X006671Y008056D01*
X006744Y007879D01*
X006879Y007744D01*
X007056Y007671D01*
X007247Y007671D01*
X007423Y007744D01*
X007558Y007879D01*
X007631Y008056D01*
X007631Y008247D01*
X007558Y008423D01*
X007423Y008558D01*
X007247Y008631D01*
X007043Y008626D02*
X006259Y008626D01*
X006454Y008527D02*
X006849Y008527D01*
X006750Y008429D02*
X006552Y008429D01*
X006597Y008330D02*
X006706Y008330D01*
X006671Y008232D02*
X006631Y008232D01*
X006631Y008133D02*
X006671Y008133D01*
X006680Y008035D02*
X006622Y008035D01*
X006582Y007936D02*
X006721Y007936D01*
X006786Y007838D02*
X006516Y007838D01*
X006410Y007739D02*
X006892Y007739D01*
X006863Y007542D02*
X006467Y007542D01*
X006566Y007443D02*
X006765Y007443D01*
X006712Y007345D02*
X006612Y007345D01*
X006651Y007246D02*
X006671Y007246D01*
X006200Y007246D02*
X006103Y007246D01*
X006103Y007345D02*
X006200Y007345D01*
X006200Y007443D02*
X006103Y007443D01*
X006103Y007542D02*
X006200Y007542D01*
X006200Y007640D02*
X006103Y007640D01*
X006026Y007640D02*
X004062Y007640D01*
X003681Y007640D02*
X003621Y007640D01*
X003621Y007542D02*
X003681Y007542D01*
X003681Y007443D02*
X003621Y007443D01*
X003621Y007345D02*
X003681Y007345D01*
X003681Y007246D02*
X003621Y007246D01*
X003621Y007148D02*
X003681Y007148D01*
X003681Y007049D02*
X003621Y007049D01*
X003621Y006951D02*
X003681Y006951D01*
X003851Y006951D02*
X005693Y006951D01*
X005743Y006852D02*
X000402Y006852D01*
X000402Y006754D02*
X005842Y006754D01*
X006042Y006655D02*
X000402Y006655D01*
X000402Y005965D02*
X001605Y005965D01*
X001517Y005867D02*
X000402Y005867D01*
X000402Y005768D02*
X001476Y005768D01*
X001461Y005670D02*
X000402Y005670D01*
X000402Y005571D02*
X001461Y005571D01*
X001501Y005473D02*
X000402Y005473D01*
X000402Y005374D02*
X001569Y005374D01*
X001707Y005275D02*
X000402Y005275D01*
X000402Y005177D02*
X003221Y005177D01*
X003221Y005275D02*
X002595Y005275D01*
X002734Y005374D02*
X003266Y005374D01*
X003364Y005473D02*
X002801Y005473D01*
X002841Y005571D02*
X003463Y005571D01*
X003221Y005078D02*
X002523Y005078D01*
X002711Y004980D02*
X003221Y004980D01*
X003313Y004881D02*
X002801Y004881D01*
X002829Y004487D02*
X004683Y004487D01*
X004577Y004389D02*
X002777Y004389D01*
X002678Y004290D02*
X004527Y004290D01*
X005619Y004487D02*
X005733Y004487D01*
X005541Y004783D02*
X005971Y004783D01*
X005971Y004881D02*
X005693Y004881D01*
X005762Y004980D02*
X005971Y004980D01*
X005971Y005078D02*
X005801Y005078D01*
X005801Y005177D02*
X005971Y005177D01*
X005971Y005275D02*
X005782Y005275D01*
X005740Y005374D02*
X005971Y005374D01*
X005971Y005473D02*
X005641Y005473D01*
X006924Y005670D02*
X008378Y005670D01*
X008515Y006261D02*
X009006Y006261D01*
X009105Y006359D02*
X008614Y006359D01*
X008712Y006458D02*
X009203Y006458D01*
X009302Y006556D02*
X008811Y006556D01*
X008910Y006655D02*
X009401Y006655D01*
X009499Y006754D02*
X009008Y006754D01*
X009107Y006852D02*
X009598Y006852D01*
X009696Y006951D02*
X009205Y006951D01*
X008893Y007148D02*
X008631Y007148D01*
X008631Y007056D02*
X008558Y006879D01*
X008423Y006744D01*
X008247Y006671D01*
X008056Y006671D01*
X007879Y006744D01*
X007744Y006879D01*
X007671Y007056D01*
X007671Y007247D01*
X007744Y007423D01*
X007879Y007558D01*
X008056Y007631D01*
X008247Y007631D01*
X008423Y007558D01*
X008558Y007423D01*
X008631Y007247D01*
X008631Y007056D01*
X008628Y007049D02*
X008795Y007049D01*
X008696Y006951D02*
X008588Y006951D01*
X008598Y006852D02*
X008531Y006852D01*
X008499Y006754D02*
X008432Y006754D01*
X008401Y006655D02*
X006260Y006655D01*
X006200Y006655D02*
X006103Y006655D01*
X006103Y006754D02*
X006200Y006754D01*
X006200Y006852D02*
X006103Y006852D01*
X006103Y006951D02*
X006200Y006951D01*
X006200Y007049D02*
X006103Y007049D01*
X006276Y007640D02*
X009386Y007640D01*
X009287Y007542D02*
X008439Y007542D01*
X008538Y007443D02*
X009189Y007443D01*
X009090Y007345D02*
X008591Y007345D01*
X008631Y007246D02*
X008992Y007246D01*
X008623Y007739D02*
X009484Y007739D01*
X009583Y007838D02*
X008631Y007838D01*
X008631Y007936D02*
X009682Y007936D01*
X010669Y008724D02*
X001765Y008724D01*
X001949Y008626D02*
X006043Y008626D01*
X005849Y008527D02*
X002048Y008527D01*
X002146Y008429D02*
X005750Y008429D01*
X005706Y008330D02*
X002198Y008330D01*
X002238Y008232D02*
X005671Y008232D01*
X005671Y008133D02*
X002279Y008133D01*
X002301Y008035D02*
X005680Y008035D01*
X007410Y007739D02*
X007679Y007739D01*
X007671Y007838D02*
X007516Y007838D01*
X007582Y007936D02*
X007671Y007936D01*
X007671Y008035D02*
X007622Y008035D01*
X007631Y008133D02*
X007671Y008133D01*
X007671Y008232D02*
X007631Y008232D01*
X007597Y008330D02*
X007671Y008330D01*
X007671Y008429D02*
X007552Y008429D01*
X007454Y008527D02*
X007671Y008527D01*
X007863Y007542D02*
X007439Y007542D01*
X007538Y007443D02*
X007765Y007443D01*
X007712Y007345D02*
X007591Y007345D01*
X007631Y007246D02*
X007671Y007246D01*
X007671Y007148D02*
X007631Y007148D01*
X007628Y007049D02*
X007674Y007049D01*
X007715Y006951D02*
X007588Y006951D01*
X007531Y006852D02*
X007771Y006852D01*
X007870Y006754D02*
X007432Y006754D01*
X003681Y007739D02*
X003621Y007739D01*
X003621Y007838D02*
X003681Y007838D01*
X002367Y007739D02*
X002301Y007739D01*
X002274Y007640D02*
X002267Y007640D01*
X002233Y007542D02*
X002226Y007542D01*
X002211Y007443D02*
X002186Y007443D01*
X002211Y007345D02*
X002118Y007345D01*
X002019Y007246D02*
X002239Y007246D01*
X002282Y007148D02*
X001921Y007148D01*
X001696Y007049D02*
X002381Y007049D01*
X002191Y005078D02*
X002111Y005078D01*
X002111Y005081D02*
X001786Y005081D01*
X001628Y005016D01*
X001507Y004895D01*
X001441Y004737D01*
X001441Y004691D01*
X002111Y004691D01*
X002111Y005081D01*
X002111Y004980D02*
X002191Y004980D01*
X002191Y004881D02*
X002111Y004881D01*
X002111Y004783D02*
X002191Y004783D01*
X002191Y004586D02*
X002111Y004586D01*
X002111Y004487D02*
X002191Y004487D01*
X002191Y004389D02*
X002111Y004389D01*
X002111Y004290D02*
X002191Y004290D01*
X001460Y004783D02*
X000402Y004783D01*
X000402Y004881D02*
X001501Y004881D01*
X001592Y004980D02*
X000402Y004980D01*
X000402Y005078D02*
X001779Y005078D01*
X005576Y003797D02*
X006471Y003797D01*
X007361Y002910D02*
X007580Y002910D01*
X007691Y002812D02*
X007361Y002812D01*
X007361Y002516D02*
X007753Y002516D01*
X007606Y002418D02*
X007361Y002418D01*
X007361Y002319D02*
X007539Y002319D01*
X007501Y002221D02*
X007361Y002221D01*
X007361Y002122D02*
X007501Y002122D01*
X007522Y002024D02*
X007361Y002024D01*
X007361Y001925D02*
X007566Y001925D01*
X007664Y001826D02*
X007361Y001826D01*
X007361Y001728D02*
X008966Y001728D01*
X008868Y001826D02*
X008638Y001826D01*
X008736Y001925D02*
X008769Y001925D01*
X008810Y002418D02*
X008696Y002418D01*
X008549Y002516D02*
X008908Y002516D01*
X008882Y002812D02*
X008611Y002812D01*
X008722Y002910D02*
X008784Y002910D01*
X006941Y002122D02*
X005181Y002122D01*
X005121Y002121D02*
X005121Y001741D01*
X004810Y001741D01*
X004659Y001804D01*
X004544Y001919D01*
X004481Y002070D01*
X004481Y002121D01*
X005121Y002121D01*
X005121Y002122D02*
X001953Y002122D01*
X002052Y002024D02*
X004500Y002024D01*
X004541Y001925D02*
X002150Y001925D01*
X002199Y001826D02*
X004636Y001826D01*
X005121Y001826D02*
X005181Y001826D01*
X005181Y001925D02*
X005121Y001925D01*
X005121Y002024D02*
X005181Y002024D01*
X005181Y002221D02*
X005121Y002221D01*
X005121Y002319D02*
X005181Y002319D01*
X005181Y002418D02*
X005121Y002418D01*
X005121Y002516D02*
X005181Y002516D01*
X004481Y002221D02*
X001775Y002221D01*
X006454Y001235D02*
X006877Y001235D01*
X006779Y001137D02*
X006552Y001137D01*
X006601Y001038D02*
X006721Y001038D01*
X006721Y000940D02*
X006601Y000940D01*
X006601Y000841D02*
X006721Y000841D01*
X006721Y000742D02*
X006601Y000742D01*
X006530Y000644D02*
X006800Y000644D01*
X006899Y000545D02*
X006432Y000545D01*
X011689Y008133D02*
X011782Y008133D01*
X011758Y008232D02*
X011874Y008232D01*
X011776Y008527D02*
X012505Y008527D01*
X012546Y008626D02*
X011732Y008626D01*
X011633Y008724D02*
X012641Y008724D01*
D21*
X008151Y005151D02*
X007651Y005151D01*
X007151Y004651D01*
X007151Y000901D01*
M02*
