%
M48
M72
T01C0.0315
T02C0.0320
T03C0.0360
T04C0.0394
T05C0.1300
%
T01
X11151Y6401
X12151Y6901
X13151Y6401
X12151Y7901
X11151Y8401
X13151Y8401
T02
X13151Y5151
X13151Y4151
X13151Y3151
X13151Y2151
X9151Y2151
X8151Y2151
X8151Y3151
X9151Y3151
X9151Y4151
X8151Y4151
X8151Y5151
X9151Y5151
X5151Y5151
X3651Y5151
X5151Y4151
X5151Y3151
X5151Y2151
X3651Y1151
X6151Y901
X7151Y901
X3651Y7401
X2651Y7401
T03
X2151Y5651
X2151Y4651
X15651Y4651
X15651Y5651
T04
X8151Y7151
X7151Y7151
X6151Y7151
X6151Y8151
X7151Y8151
X8151Y8151
T05
X1401Y1401
X1401Y7901
X15901Y7901
X15901Y1401
M30
