G75*
G70*
%OFA0B0*%
%FSLAX24Y24*%
%IPPOS*%
%LPD*%
%AMOC8*
5,1,8,0,0,1.08239X$1,22.5*
%
%ADD10C,0.0000*%
%ADD11C,0.0520*%
%ADD12C,0.0560*%
%ADD13R,0.0515X0.0515*%
%ADD14C,0.0515*%
%ADD15C,0.0600*%
%ADD16OC8,0.0620*%
%ADD17C,0.0620*%
%ADD18R,0.0700X0.0700*%
%ADD19C,0.0700*%
%ADD20OC8,0.0600*%
%ADD21C,0.0100*%
%ADD22C,0.0160*%
D10*
X000151Y000153D02*
X000153Y009149D01*
X017086Y009149D01*
X017086Y000153D01*
X000151Y000153D01*
X000751Y001401D02*
X000753Y001451D01*
X000759Y001501D01*
X000769Y001551D01*
X000782Y001599D01*
X000799Y001647D01*
X000820Y001693D01*
X000844Y001737D01*
X000872Y001779D01*
X000903Y001819D01*
X000937Y001856D01*
X000974Y001891D01*
X001013Y001922D01*
X001054Y001951D01*
X001098Y001976D01*
X001144Y001998D01*
X001191Y002016D01*
X001239Y002030D01*
X001288Y002041D01*
X001338Y002048D01*
X001388Y002051D01*
X001439Y002050D01*
X001489Y002045D01*
X001539Y002036D01*
X001587Y002024D01*
X001635Y002007D01*
X001681Y001987D01*
X001726Y001964D01*
X001769Y001937D01*
X001809Y001907D01*
X001847Y001874D01*
X001882Y001838D01*
X001915Y001799D01*
X001944Y001758D01*
X001970Y001715D01*
X001993Y001670D01*
X002012Y001623D01*
X002027Y001575D01*
X002039Y001526D01*
X002047Y001476D01*
X002051Y001426D01*
X002051Y001376D01*
X002047Y001326D01*
X002039Y001276D01*
X002027Y001227D01*
X002012Y001179D01*
X001993Y001132D01*
X001970Y001087D01*
X001944Y001044D01*
X001915Y001003D01*
X001882Y000964D01*
X001847Y000928D01*
X001809Y000895D01*
X001769Y000865D01*
X001726Y000838D01*
X001681Y000815D01*
X001635Y000795D01*
X001587Y000778D01*
X001539Y000766D01*
X001489Y000757D01*
X001439Y000752D01*
X001388Y000751D01*
X001338Y000754D01*
X001288Y000761D01*
X001239Y000772D01*
X001191Y000786D01*
X001144Y000804D01*
X001098Y000826D01*
X001054Y000851D01*
X001013Y000880D01*
X000974Y000911D01*
X000937Y000946D01*
X000903Y000983D01*
X000872Y001023D01*
X000844Y001065D01*
X000820Y001109D01*
X000799Y001155D01*
X000782Y001203D01*
X000769Y001251D01*
X000759Y001301D01*
X000753Y001351D01*
X000751Y001401D01*
X000751Y007901D02*
X000753Y007951D01*
X000759Y008001D01*
X000769Y008051D01*
X000782Y008099D01*
X000799Y008147D01*
X000820Y008193D01*
X000844Y008237D01*
X000872Y008279D01*
X000903Y008319D01*
X000937Y008356D01*
X000974Y008391D01*
X001013Y008422D01*
X001054Y008451D01*
X001098Y008476D01*
X001144Y008498D01*
X001191Y008516D01*
X001239Y008530D01*
X001288Y008541D01*
X001338Y008548D01*
X001388Y008551D01*
X001439Y008550D01*
X001489Y008545D01*
X001539Y008536D01*
X001587Y008524D01*
X001635Y008507D01*
X001681Y008487D01*
X001726Y008464D01*
X001769Y008437D01*
X001809Y008407D01*
X001847Y008374D01*
X001882Y008338D01*
X001915Y008299D01*
X001944Y008258D01*
X001970Y008215D01*
X001993Y008170D01*
X002012Y008123D01*
X002027Y008075D01*
X002039Y008026D01*
X002047Y007976D01*
X002051Y007926D01*
X002051Y007876D01*
X002047Y007826D01*
X002039Y007776D01*
X002027Y007727D01*
X002012Y007679D01*
X001993Y007632D01*
X001970Y007587D01*
X001944Y007544D01*
X001915Y007503D01*
X001882Y007464D01*
X001847Y007428D01*
X001809Y007395D01*
X001769Y007365D01*
X001726Y007338D01*
X001681Y007315D01*
X001635Y007295D01*
X001587Y007278D01*
X001539Y007266D01*
X001489Y007257D01*
X001439Y007252D01*
X001388Y007251D01*
X001338Y007254D01*
X001288Y007261D01*
X001239Y007272D01*
X001191Y007286D01*
X001144Y007304D01*
X001098Y007326D01*
X001054Y007351D01*
X001013Y007380D01*
X000974Y007411D01*
X000937Y007446D01*
X000903Y007483D01*
X000872Y007523D01*
X000844Y007565D01*
X000820Y007609D01*
X000799Y007655D01*
X000782Y007703D01*
X000769Y007751D01*
X000759Y007801D01*
X000753Y007851D01*
X000751Y007901D01*
X015251Y007901D02*
X015253Y007951D01*
X015259Y008001D01*
X015269Y008051D01*
X015282Y008099D01*
X015299Y008147D01*
X015320Y008193D01*
X015344Y008237D01*
X015372Y008279D01*
X015403Y008319D01*
X015437Y008356D01*
X015474Y008391D01*
X015513Y008422D01*
X015554Y008451D01*
X015598Y008476D01*
X015644Y008498D01*
X015691Y008516D01*
X015739Y008530D01*
X015788Y008541D01*
X015838Y008548D01*
X015888Y008551D01*
X015939Y008550D01*
X015989Y008545D01*
X016039Y008536D01*
X016087Y008524D01*
X016135Y008507D01*
X016181Y008487D01*
X016226Y008464D01*
X016269Y008437D01*
X016309Y008407D01*
X016347Y008374D01*
X016382Y008338D01*
X016415Y008299D01*
X016444Y008258D01*
X016470Y008215D01*
X016493Y008170D01*
X016512Y008123D01*
X016527Y008075D01*
X016539Y008026D01*
X016547Y007976D01*
X016551Y007926D01*
X016551Y007876D01*
X016547Y007826D01*
X016539Y007776D01*
X016527Y007727D01*
X016512Y007679D01*
X016493Y007632D01*
X016470Y007587D01*
X016444Y007544D01*
X016415Y007503D01*
X016382Y007464D01*
X016347Y007428D01*
X016309Y007395D01*
X016269Y007365D01*
X016226Y007338D01*
X016181Y007315D01*
X016135Y007295D01*
X016087Y007278D01*
X016039Y007266D01*
X015989Y007257D01*
X015939Y007252D01*
X015888Y007251D01*
X015838Y007254D01*
X015788Y007261D01*
X015739Y007272D01*
X015691Y007286D01*
X015644Y007304D01*
X015598Y007326D01*
X015554Y007351D01*
X015513Y007380D01*
X015474Y007411D01*
X015437Y007446D01*
X015403Y007483D01*
X015372Y007523D01*
X015344Y007565D01*
X015320Y007609D01*
X015299Y007655D01*
X015282Y007703D01*
X015269Y007751D01*
X015259Y007801D01*
X015253Y007851D01*
X015251Y007901D01*
X015251Y001401D02*
X015253Y001451D01*
X015259Y001501D01*
X015269Y001551D01*
X015282Y001599D01*
X015299Y001647D01*
X015320Y001693D01*
X015344Y001737D01*
X015372Y001779D01*
X015403Y001819D01*
X015437Y001856D01*
X015474Y001891D01*
X015513Y001922D01*
X015554Y001951D01*
X015598Y001976D01*
X015644Y001998D01*
X015691Y002016D01*
X015739Y002030D01*
X015788Y002041D01*
X015838Y002048D01*
X015888Y002051D01*
X015939Y002050D01*
X015989Y002045D01*
X016039Y002036D01*
X016087Y002024D01*
X016135Y002007D01*
X016181Y001987D01*
X016226Y001964D01*
X016269Y001937D01*
X016309Y001907D01*
X016347Y001874D01*
X016382Y001838D01*
X016415Y001799D01*
X016444Y001758D01*
X016470Y001715D01*
X016493Y001670D01*
X016512Y001623D01*
X016527Y001575D01*
X016539Y001526D01*
X016547Y001476D01*
X016551Y001426D01*
X016551Y001376D01*
X016547Y001326D01*
X016539Y001276D01*
X016527Y001227D01*
X016512Y001179D01*
X016493Y001132D01*
X016470Y001087D01*
X016444Y001044D01*
X016415Y001003D01*
X016382Y000964D01*
X016347Y000928D01*
X016309Y000895D01*
X016269Y000865D01*
X016226Y000838D01*
X016181Y000815D01*
X016135Y000795D01*
X016087Y000778D01*
X016039Y000766D01*
X015989Y000757D01*
X015939Y000752D01*
X015888Y000751D01*
X015838Y000754D01*
X015788Y000761D01*
X015739Y000772D01*
X015691Y000786D01*
X015644Y000804D01*
X015598Y000826D01*
X015554Y000851D01*
X015513Y000880D01*
X015474Y000911D01*
X015437Y000946D01*
X015403Y000983D01*
X015372Y001023D01*
X015344Y001065D01*
X015320Y001109D01*
X015299Y001155D01*
X015282Y001203D01*
X015269Y001251D01*
X015259Y001301D01*
X015253Y001351D01*
X015251Y001401D01*
D11*
X008411Y002151D02*
X007891Y002151D01*
X007891Y003151D02*
X008411Y003151D01*
X008411Y004151D02*
X007891Y004151D01*
X007891Y005151D02*
X008411Y005151D01*
X005411Y005151D02*
X004891Y005151D01*
X004891Y004151D02*
X005411Y004151D01*
X005411Y003151D02*
X004891Y003151D01*
X004891Y002151D02*
X005411Y002151D01*
D12*
X002431Y004651D02*
X001871Y004651D01*
X001871Y005651D02*
X002431Y005651D01*
X015371Y005651D02*
X015931Y005651D01*
X015931Y004651D02*
X015371Y004651D01*
D13*
X011151Y006401D03*
D14*
X012894Y006401D02*
X013409Y006401D01*
X013409Y008401D02*
X012894Y008401D01*
X011409Y008401D02*
X010894Y008401D01*
D15*
X012151Y007901D03*
X012151Y006901D03*
D16*
X003651Y007401D03*
D17*
X002651Y007401D03*
D18*
X008151Y008151D03*
D19*
X007151Y008151D03*
X006151Y008151D03*
X006151Y007151D03*
X007151Y007151D03*
X008151Y007151D03*
D20*
X009151Y005151D03*
X009151Y004151D03*
X009151Y003151D03*
X009151Y002151D03*
X007151Y000901D03*
X006151Y000901D03*
X003651Y001151D03*
X003651Y005151D03*
X013151Y005151D03*
X013151Y004151D03*
X013151Y003151D03*
X013151Y002151D03*
D21*
X013651Y002651D01*
X013651Y005901D01*
X013151Y006401D01*
X011151Y006401D02*
X011151Y005151D01*
X012151Y004151D01*
X013151Y004151D01*
X013151Y003151D02*
X012151Y003151D01*
X010651Y004651D01*
X010651Y007151D01*
X011151Y007651D01*
X011151Y008401D01*
X009901Y006901D02*
X008651Y008151D01*
X008151Y008151D01*
X007651Y007651D02*
X007651Y005651D01*
X007401Y005401D01*
X007401Y004401D01*
X007651Y004151D01*
X008151Y004151D01*
X009151Y004151D01*
X009901Y003651D02*
X009401Y003151D01*
X009151Y003151D01*
X008151Y003151D01*
X007651Y002151D02*
X007151Y002651D01*
X007151Y007151D01*
X007651Y007651D02*
X007151Y008151D01*
X006151Y008151D02*
X005651Y008151D01*
X005151Y007651D01*
X005151Y005151D01*
X003651Y005151D01*
X002651Y006151D02*
X002151Y005651D01*
X002651Y006151D02*
X002651Y007401D01*
X009901Y006901D02*
X009901Y003651D01*
X009151Y002151D02*
X008151Y002151D01*
X007651Y002151D01*
D22*
X006651Y001401D02*
X007151Y000901D01*
X013651Y000901D01*
X014901Y002151D01*
X014901Y005401D01*
X015151Y005651D01*
X015651Y005651D01*
X008151Y005151D02*
X008151Y007151D01*
X002901Y005401D02*
X002901Y001901D01*
X003651Y001151D01*
X004401Y001151D01*
X004651Y001401D01*
X006651Y001401D01*
X002901Y005401D02*
X002651Y005651D01*
X002151Y005651D01*
M02*
