G75*
G70*
%OFA0B0*%
%FSLAX24Y24*%
%IPPOS*%
%LPD*%
%AMOC8*
5,1,8,0,0,1.08239X$1,22.5*
%
%ADD10C,0.0040*%
%ADD11C,0.0070*%
%ADD12C,0.0050*%
%ADD13C,0.0060*%
%ADD14R,0.0340X0.0240*%
%ADD15R,0.0240X0.0340*%
%ADD16C,0.0100*%
D10*
X001248Y003421D02*
X001401Y003421D01*
X001478Y003498D01*
X001478Y003651D01*
X001325Y003651D01*
X001478Y003805D02*
X001401Y003882D01*
X001248Y003882D01*
X001171Y003805D01*
X001171Y003498D01*
X001248Y003421D01*
X001632Y003421D02*
X001632Y003882D01*
X001938Y003421D01*
X001938Y003882D01*
X002092Y003882D02*
X002322Y003882D01*
X002399Y003805D01*
X002399Y003498D01*
X002322Y003421D01*
X002092Y003421D01*
X002092Y003882D01*
X002169Y006421D02*
X002399Y006421D01*
X002169Y006421D02*
X002092Y006498D01*
X002092Y006651D01*
X002169Y006728D01*
X002399Y006728D01*
X001938Y006728D02*
X001708Y006728D01*
X001632Y006651D01*
X001632Y006498D01*
X001708Y006421D01*
X001938Y006421D01*
X001478Y006575D02*
X001478Y006882D01*
X001171Y006882D02*
X001171Y006575D01*
X001325Y006421D01*
X001478Y006575D01*
X008711Y007921D02*
X009018Y007921D01*
X008864Y007921D02*
X008864Y008382D01*
X008711Y008228D01*
X015171Y006882D02*
X015171Y006575D01*
X015325Y006421D01*
X015478Y006575D01*
X015478Y006882D01*
X015708Y006728D02*
X015632Y006651D01*
X015632Y006498D01*
X015708Y006421D01*
X015938Y006421D01*
X016092Y006498D02*
X016169Y006421D01*
X016399Y006421D01*
X016092Y006498D02*
X016092Y006651D01*
X016169Y006728D01*
X016399Y006728D01*
X015938Y006728D02*
X015708Y006728D01*
X015632Y003882D02*
X015938Y003421D01*
X015938Y003882D01*
X016092Y003882D02*
X016322Y003882D01*
X016399Y003805D01*
X016399Y003498D01*
X016322Y003421D01*
X016092Y003421D01*
X016092Y003882D01*
X015632Y003882D02*
X015632Y003421D01*
X015478Y003498D02*
X015478Y003651D01*
X015325Y003651D01*
X015478Y003805D02*
X015401Y003882D01*
X015248Y003882D01*
X015171Y003805D01*
X015171Y003498D01*
X015248Y003421D01*
X015401Y003421D01*
X015478Y003498D01*
D11*
X014616Y003602D02*
X014419Y003307D01*
X014223Y003602D01*
X014321Y003813D02*
X014223Y003912D01*
X014223Y004108D01*
X014321Y004207D01*
X014419Y004207D01*
X014419Y003813D01*
X014321Y003813D02*
X014518Y003813D01*
X014616Y003912D01*
X014616Y004108D01*
X014616Y004421D02*
X014223Y004421D01*
X014419Y004421D02*
X014223Y004618D01*
X014223Y004716D01*
X014026Y004927D02*
X014026Y005026D01*
X014616Y005026D01*
X014616Y005124D02*
X014616Y004927D01*
X014518Y005332D02*
X014321Y005332D01*
X014223Y005431D01*
X014223Y005628D01*
X014321Y005726D01*
X014518Y005726D01*
X014616Y005628D01*
X014616Y005431D01*
X014518Y005332D01*
X014518Y005940D02*
X014321Y005940D01*
X014223Y006039D01*
X014223Y006334D01*
X014715Y006334D01*
X014813Y006235D01*
X014813Y006137D01*
X014616Y006039D02*
X014616Y006334D01*
X014616Y006548D02*
X014518Y006548D01*
X014518Y006646D01*
X014616Y006646D01*
X014616Y006548D01*
X014518Y006852D02*
X014321Y006852D01*
X014223Y006950D01*
X014223Y007245D01*
X014616Y007245D02*
X014616Y006950D01*
X014518Y006852D01*
X014518Y007459D02*
X014321Y007459D01*
X014223Y007558D01*
X014223Y007755D01*
X014321Y007853D01*
X014518Y007853D01*
X014616Y007755D01*
X014616Y007558D01*
X014518Y007459D01*
X014616Y008067D02*
X014223Y008067D01*
X014223Y008166D01*
X014321Y008264D01*
X014223Y008362D01*
X014321Y008461D01*
X014616Y008461D01*
X014616Y008264D02*
X014321Y008264D01*
X014616Y006039D02*
X014518Y005940D01*
X014616Y003307D02*
X014026Y003307D01*
X014321Y003093D02*
X014616Y003093D01*
X014321Y003093D02*
X014223Y002994D01*
X014223Y002699D01*
X014616Y002699D01*
X014616Y002491D02*
X014616Y002294D01*
X014616Y002392D02*
X014223Y002392D01*
X014223Y002294D01*
X014026Y002392D02*
X013927Y002392D01*
X014026Y002080D02*
X014026Y001686D01*
X014026Y001883D02*
X014616Y001883D01*
X014517Y001317D02*
X014307Y001317D01*
X014202Y001212D01*
X014517Y001317D02*
X014622Y001212D01*
X014622Y001107D01*
X014517Y001001D01*
X014622Y000896D01*
X014622Y000791D01*
X014517Y000686D01*
X014307Y000686D01*
X014202Y000791D01*
X013985Y000791D02*
X013985Y000686D01*
X013879Y000686D01*
X013879Y000791D01*
X013985Y000791D01*
X013655Y000686D02*
X013235Y000686D01*
X013655Y001107D01*
X013655Y001212D01*
X013550Y001317D01*
X013340Y001317D01*
X013235Y001212D01*
X013011Y001107D02*
X012801Y000686D01*
X012590Y001107D01*
X011722Y001107D02*
X011722Y000581D01*
X011617Y000476D01*
X011512Y000476D01*
X011406Y000686D02*
X011722Y000686D01*
X011406Y000686D02*
X011301Y000791D01*
X011301Y001107D01*
X010977Y001317D02*
X010872Y001317D01*
X010977Y001317D02*
X010977Y000686D01*
X010872Y000686D02*
X011082Y000686D01*
X010652Y001001D02*
X010442Y001001D01*
X010218Y001001D02*
X010218Y000896D01*
X009797Y000896D01*
X009797Y000791D02*
X009797Y001001D01*
X009903Y001107D01*
X010113Y001107D01*
X010218Y001001D01*
X010113Y000686D02*
X009903Y000686D01*
X009797Y000791D01*
X009576Y001107D02*
X009471Y001107D01*
X009260Y000896D01*
X009260Y000686D02*
X009260Y001107D01*
X008936Y001107D02*
X008936Y000686D01*
X008831Y000686D02*
X009041Y000686D01*
X008936Y001107D02*
X008831Y001107D01*
X008936Y001317D02*
X008936Y001422D01*
X008607Y001317D02*
X008186Y001317D01*
X008186Y000686D01*
X008186Y001001D02*
X008396Y001001D01*
X010547Y001212D02*
X010547Y000686D01*
X010547Y001212D02*
X010652Y001317D01*
X014412Y001001D02*
X014517Y001001D01*
D12*
X011237Y002101D02*
X011162Y002026D01*
X011012Y002026D01*
X010937Y002101D01*
X010776Y002026D02*
X010626Y002176D01*
X010701Y002176D02*
X010476Y002176D01*
X010701Y002176D02*
X010776Y002251D01*
X010776Y002401D01*
X010701Y002477D01*
X010476Y002477D01*
X010476Y002026D01*
X010937Y002401D02*
X011012Y002477D01*
X011162Y002477D01*
X011237Y002401D01*
X011237Y002326D01*
X011162Y002251D01*
X011237Y002176D01*
X011237Y002101D01*
X011162Y002251D02*
X011087Y002251D01*
X011237Y003026D02*
X010937Y003026D01*
X011237Y003326D01*
X011237Y003401D01*
X011162Y003477D01*
X011012Y003477D01*
X010937Y003401D01*
X010776Y003401D02*
X010776Y003251D01*
X010701Y003176D01*
X010476Y003176D01*
X010626Y003176D02*
X010776Y003026D01*
X010476Y003026D02*
X010476Y003477D01*
X010701Y003477D01*
X010776Y003401D01*
X010776Y004026D02*
X010626Y004176D01*
X010701Y004176D02*
X010476Y004176D01*
X010476Y004026D02*
X010476Y004477D01*
X010701Y004477D01*
X010776Y004401D01*
X010776Y004251D01*
X010701Y004176D01*
X010937Y004026D02*
X011237Y004026D01*
X011087Y004026D02*
X011087Y004477D01*
X010937Y004326D01*
X010776Y005026D02*
X010626Y005176D01*
X010701Y005176D02*
X010476Y005176D01*
X010476Y005026D02*
X010476Y005477D01*
X010701Y005477D01*
X010776Y005401D01*
X010776Y005251D01*
X010701Y005176D01*
X010937Y005251D02*
X011237Y005251D01*
X011162Y005477D02*
X010937Y005251D01*
X011162Y005026D02*
X011162Y005477D01*
X011901Y007151D02*
X012401Y007151D01*
X012401Y007401D02*
X011901Y007401D01*
X011444Y007401D02*
X011446Y007454D01*
X011452Y007506D01*
X011462Y007558D01*
X011475Y007609D01*
X011493Y007659D01*
X011514Y007708D01*
X011539Y007755D01*
X011567Y007799D01*
X011598Y007842D01*
X011633Y007882D01*
X011670Y007919D01*
X011710Y007954D01*
X011753Y007985D01*
X011798Y008013D01*
X011844Y008038D01*
X011893Y008059D01*
X011943Y008077D01*
X011994Y008090D01*
X012046Y008100D01*
X012098Y008106D01*
X012151Y008108D01*
X012204Y008106D01*
X012256Y008100D01*
X012308Y008090D01*
X012359Y008077D01*
X012409Y008059D01*
X012458Y008038D01*
X012505Y008013D01*
X012549Y007985D01*
X012592Y007954D01*
X012632Y007919D01*
X012669Y007882D01*
X012704Y007842D01*
X012735Y007799D01*
X012763Y007754D01*
X012788Y007708D01*
X012809Y007659D01*
X012827Y007609D01*
X012840Y007558D01*
X012850Y007506D01*
X012856Y007454D01*
X012858Y007401D01*
X012856Y007348D01*
X012850Y007296D01*
X012840Y007244D01*
X012827Y007193D01*
X012809Y007143D01*
X012788Y007094D01*
X012763Y007047D01*
X012735Y007003D01*
X012704Y006960D01*
X012669Y006920D01*
X012632Y006883D01*
X012592Y006848D01*
X012549Y006817D01*
X012504Y006789D01*
X012458Y006764D01*
X012409Y006743D01*
X012359Y006725D01*
X012308Y006712D01*
X012256Y006702D01*
X012204Y006696D01*
X012151Y006694D01*
X012098Y006696D01*
X012046Y006702D01*
X011994Y006712D01*
X011943Y006725D01*
X011893Y006743D01*
X011844Y006764D01*
X011797Y006789D01*
X011753Y006817D01*
X011710Y006848D01*
X011670Y006883D01*
X011633Y006920D01*
X011598Y006960D01*
X011567Y007003D01*
X011539Y007048D01*
X011514Y007094D01*
X011493Y007143D01*
X011475Y007193D01*
X011462Y007244D01*
X011452Y007296D01*
X011446Y007348D01*
X011444Y007401D01*
X011901Y007651D02*
X012401Y007651D01*
X012651Y007901D02*
X011651Y007901D01*
X012293Y008235D02*
X012293Y008468D01*
X012176Y008351D02*
X012410Y008351D01*
X012651Y008401D02*
X011651Y008401D01*
X011651Y007901D02*
X011616Y007863D01*
X011583Y007822D01*
X011554Y007779D01*
X011527Y007734D01*
X011505Y007688D01*
X011485Y007639D01*
X011470Y007590D01*
X011458Y007539D01*
X011449Y007488D01*
X011445Y007436D01*
X011444Y007384D01*
X011447Y007332D01*
X011454Y007280D01*
X011465Y007229D01*
X011480Y007179D01*
X011498Y007130D01*
X011519Y007083D01*
X011545Y007038D01*
X011573Y006994D01*
X011604Y006952D01*
X011639Y006913D01*
X011676Y006877D01*
X011716Y006844D01*
X011758Y006813D01*
X011803Y006786D01*
X011849Y006762D01*
X011897Y006741D01*
X011946Y006724D01*
X011996Y006711D01*
X012047Y006702D01*
X012099Y006696D01*
X012151Y006694D01*
X012203Y006696D01*
X012255Y006702D01*
X012306Y006711D01*
X012356Y006724D01*
X012405Y006741D01*
X012453Y006762D01*
X012499Y006786D01*
X012544Y006813D01*
X012586Y006844D01*
X012626Y006877D01*
X012663Y006913D01*
X012698Y006952D01*
X012729Y006994D01*
X012757Y007038D01*
X012783Y007083D01*
X012804Y007130D01*
X012822Y007179D01*
X012837Y007229D01*
X012848Y007280D01*
X012855Y007332D01*
X012858Y007384D01*
X012857Y007436D01*
X012853Y007488D01*
X012844Y007539D01*
X012832Y007590D01*
X012817Y007639D01*
X012797Y007688D01*
X012775Y007734D01*
X012748Y007779D01*
X012719Y007822D01*
X012686Y007863D01*
X012651Y007901D01*
X012651Y008401D02*
X012709Y008370D01*
X012765Y008335D01*
X012819Y008298D01*
X012870Y008257D01*
X012920Y008213D01*
X012966Y008166D01*
X013010Y008117D01*
X013050Y008065D01*
X013088Y008011D01*
X013122Y007955D01*
X013153Y007897D01*
X013180Y007837D01*
X013204Y007776D01*
X013224Y007713D01*
X013241Y007650D01*
X013254Y007585D01*
X013263Y007520D01*
X013268Y007454D01*
X013269Y007389D01*
X013266Y007323D01*
X013260Y007257D01*
X013249Y007192D01*
X013235Y007128D01*
X013217Y007065D01*
X013196Y007003D01*
X013170Y006942D01*
X013142Y006883D01*
X013109Y006825D01*
X013074Y006770D01*
X013035Y006717D01*
X012993Y006666D01*
X012949Y006618D01*
X012901Y006572D01*
X012851Y006529D01*
X012799Y006490D01*
X012744Y006453D01*
X012687Y006420D01*
X012629Y006390D01*
X012568Y006364D01*
X012507Y006341D01*
X012444Y006322D01*
X012380Y006307D01*
X012315Y006295D01*
X012250Y006287D01*
X012184Y006283D01*
X012118Y006283D01*
X012052Y006287D01*
X011987Y006295D01*
X011922Y006307D01*
X011858Y006322D01*
X011795Y006341D01*
X011734Y006364D01*
X011673Y006390D01*
X011615Y006420D01*
X011558Y006453D01*
X011503Y006490D01*
X011451Y006529D01*
X011401Y006572D01*
X011353Y006618D01*
X011309Y006666D01*
X011267Y006717D01*
X011228Y006770D01*
X011193Y006825D01*
X011160Y006883D01*
X011132Y006942D01*
X011106Y007003D01*
X011085Y007065D01*
X011067Y007128D01*
X011053Y007192D01*
X011042Y007257D01*
X011036Y007323D01*
X011033Y007389D01*
X011034Y007454D01*
X011039Y007520D01*
X011048Y007585D01*
X011061Y007650D01*
X011078Y007713D01*
X011098Y007776D01*
X011122Y007837D01*
X011149Y007897D01*
X011180Y007955D01*
X011214Y008011D01*
X011252Y008065D01*
X011292Y008117D01*
X011336Y008166D01*
X011382Y008213D01*
X011432Y008257D01*
X011483Y008298D01*
X011537Y008335D01*
X011593Y008370D01*
X011651Y008401D01*
X006736Y004691D02*
X006661Y004766D01*
X006586Y004766D01*
X006511Y004691D01*
X006511Y004616D01*
X006511Y004691D02*
X006436Y004766D01*
X006361Y004766D01*
X006286Y004691D01*
X006286Y004541D01*
X006361Y004466D01*
X006661Y004466D02*
X006736Y004541D01*
X006736Y004691D01*
X006736Y004306D02*
X006736Y004005D01*
X006736Y004155D02*
X006286Y004155D01*
X006436Y004005D01*
X006361Y003845D02*
X006286Y003845D01*
X006361Y003845D02*
X006511Y003695D01*
X006736Y003695D01*
X006511Y003695D02*
X006361Y003545D01*
X006286Y003545D01*
X006286Y003385D02*
X006736Y003385D01*
X006286Y003085D01*
X006736Y003085D01*
X006736Y002928D02*
X006736Y002778D01*
X006736Y002853D02*
X006286Y002853D01*
X006286Y002778D02*
X006286Y002928D01*
X006286Y002618D02*
X006286Y002317D01*
X006286Y002467D02*
X006736Y002467D01*
X005266Y001277D02*
X005266Y000826D01*
X005116Y000826D02*
X005416Y000826D01*
X004956Y000901D02*
X004881Y000826D01*
X004730Y000826D01*
X004655Y000901D01*
X004655Y001201D01*
X004730Y001277D01*
X004881Y001277D01*
X004956Y001201D01*
X005116Y001126D02*
X005266Y001277D01*
X003876Y002301D02*
X003876Y002602D01*
X003876Y002451D02*
X003426Y002451D01*
X003576Y002301D01*
X002976Y002205D02*
X002526Y002205D01*
X002526Y002431D01*
X002601Y002506D01*
X002751Y002506D01*
X002826Y002431D01*
X002826Y002205D01*
X002826Y002356D02*
X002976Y002506D01*
X002901Y002666D02*
X002976Y002741D01*
X002976Y002891D01*
X002901Y002966D01*
X002751Y002966D01*
X002676Y002891D01*
X002676Y002816D01*
X002751Y002666D01*
X002526Y002666D01*
X002526Y002966D01*
X003426Y002987D02*
X003426Y002837D01*
X003501Y002762D01*
X003801Y002762D01*
X003501Y003062D01*
X003801Y003062D01*
X003876Y002987D01*
X003876Y002837D01*
X003801Y002762D01*
X003501Y003062D02*
X003426Y002987D01*
X003501Y003222D02*
X003426Y003297D01*
X003426Y003447D01*
X003501Y003522D01*
X003801Y003222D01*
X003876Y003297D01*
X003876Y003447D01*
X003801Y003522D01*
X003501Y003522D01*
X003426Y003682D02*
X003876Y003682D01*
X003726Y003682D02*
X003576Y003908D01*
X003726Y003682D02*
X003876Y003908D01*
X003801Y003222D02*
X003501Y003222D01*
X004301Y008276D02*
X004451Y008276D01*
X004526Y008351D01*
X004687Y008276D02*
X004987Y008576D01*
X004987Y008651D01*
X004912Y008727D01*
X004762Y008727D01*
X004687Y008651D01*
X004526Y008651D02*
X004451Y008727D01*
X004301Y008727D01*
X004226Y008651D01*
X004226Y008351D01*
X004301Y008276D01*
X004687Y008276D02*
X004987Y008276D01*
D13*
X004001Y001901D02*
X003301Y001901D01*
X003284Y001903D01*
X003267Y001907D01*
X003251Y001914D01*
X003237Y001924D01*
X003224Y001937D01*
X003214Y001951D01*
X003207Y001967D01*
X003203Y001984D01*
X003201Y002001D01*
X003201Y002151D01*
X003251Y002201D01*
X003251Y004101D01*
X003201Y004151D01*
X003201Y004301D01*
X003203Y004318D01*
X003207Y004335D01*
X003214Y004351D01*
X003224Y004365D01*
X003237Y004378D01*
X003251Y004388D01*
X003267Y004395D01*
X003284Y004399D01*
X003301Y004401D01*
X004001Y004401D01*
X004018Y004399D01*
X004035Y004395D01*
X004051Y004388D01*
X004065Y004378D01*
X004078Y004365D01*
X004088Y004351D01*
X004095Y004335D01*
X004099Y004318D01*
X004101Y004301D01*
X004101Y004151D01*
X004051Y004101D01*
X004051Y002201D01*
X004101Y002151D01*
X004101Y002001D01*
X004099Y001984D01*
X004095Y001967D01*
X004088Y001951D01*
X004078Y001937D01*
X004065Y001924D01*
X004051Y001914D01*
X004035Y001907D01*
X004018Y001903D01*
X004001Y001901D01*
X005551Y001651D02*
X007751Y001651D01*
X007751Y005651D01*
X006901Y005651D01*
X006899Y005621D01*
X006894Y005591D01*
X006885Y005562D01*
X006872Y005535D01*
X006857Y005509D01*
X006838Y005485D01*
X006817Y005464D01*
X006793Y005445D01*
X006767Y005430D01*
X006740Y005417D01*
X006711Y005408D01*
X006681Y005403D01*
X006651Y005401D01*
X006621Y005403D01*
X006591Y005408D01*
X006562Y005417D01*
X006535Y005430D01*
X006509Y005445D01*
X006485Y005464D01*
X006464Y005485D01*
X006445Y005509D01*
X006430Y005535D01*
X006417Y005562D01*
X006408Y005591D01*
X006403Y005621D01*
X006401Y005651D01*
X005551Y005651D01*
X005551Y001651D01*
X005801Y001401D02*
X007501Y001401D01*
X007518Y001399D01*
X007535Y001395D01*
X007551Y001388D01*
X007565Y001378D01*
X007578Y001365D01*
X007588Y001351D01*
X007595Y001335D01*
X007599Y001318D01*
X007601Y001301D01*
X007601Y000501D01*
X007599Y000484D01*
X007595Y000467D01*
X007588Y000451D01*
X007578Y000437D01*
X007565Y000424D01*
X007551Y000414D01*
X007535Y000407D01*
X007518Y000403D01*
X007501Y000401D01*
X005801Y000401D01*
X005784Y000403D01*
X005767Y000407D01*
X005751Y000414D01*
X005737Y000424D01*
X005724Y000437D01*
X005714Y000451D01*
X005707Y000467D01*
X005703Y000484D01*
X005701Y000501D01*
X005701Y001301D01*
X005703Y001318D01*
X005707Y001335D01*
X005714Y001351D01*
X005724Y001365D01*
X005737Y001378D01*
X005751Y001388D01*
X005767Y001395D01*
X005784Y001399D01*
X005801Y001401D01*
X006501Y000901D02*
X006551Y000901D01*
X006751Y000901D02*
X006801Y000901D01*
X009901Y001801D02*
X009901Y002501D01*
X009903Y002518D01*
X009907Y002535D01*
X009914Y002551D01*
X009924Y002565D01*
X009937Y002578D01*
X009951Y002588D01*
X009967Y002595D01*
X009984Y002599D01*
X010001Y002601D01*
X010151Y002601D01*
X010201Y002551D01*
X012101Y002551D01*
X012151Y002601D01*
X012301Y002601D01*
X012318Y002599D01*
X012335Y002595D01*
X012351Y002588D01*
X012365Y002578D01*
X012378Y002565D01*
X012388Y002551D01*
X012395Y002535D01*
X012399Y002518D01*
X012401Y002501D01*
X012401Y001801D01*
X012399Y001784D01*
X012395Y001767D01*
X012388Y001751D01*
X012378Y001737D01*
X012365Y001724D01*
X012351Y001714D01*
X012335Y001707D01*
X012318Y001703D01*
X012301Y001701D01*
X012151Y001701D01*
X012101Y001751D01*
X010201Y001751D01*
X010151Y001701D01*
X010001Y001701D01*
X009984Y001703D01*
X009967Y001707D01*
X009951Y001714D01*
X009937Y001724D01*
X009924Y001737D01*
X009914Y001751D01*
X009907Y001767D01*
X009903Y001784D01*
X009901Y001801D01*
X010001Y002701D02*
X010151Y002701D01*
X010201Y002751D01*
X012101Y002751D01*
X012151Y002701D01*
X012301Y002701D01*
X012318Y002703D01*
X012335Y002707D01*
X012351Y002714D01*
X012365Y002724D01*
X012378Y002737D01*
X012388Y002751D01*
X012395Y002767D01*
X012399Y002784D01*
X012401Y002801D01*
X012401Y003501D01*
X012399Y003518D01*
X012395Y003535D01*
X012388Y003551D01*
X012378Y003565D01*
X012365Y003578D01*
X012351Y003588D01*
X012335Y003595D01*
X012318Y003599D01*
X012301Y003601D01*
X012151Y003601D01*
X012101Y003551D01*
X010201Y003551D01*
X010151Y003601D01*
X010001Y003601D01*
X009984Y003599D01*
X009967Y003595D01*
X009951Y003588D01*
X009937Y003578D01*
X009924Y003565D01*
X009914Y003551D01*
X009907Y003535D01*
X009903Y003518D01*
X009901Y003501D01*
X009901Y002801D01*
X009903Y002784D01*
X009907Y002767D01*
X009914Y002751D01*
X009924Y002737D01*
X009937Y002724D01*
X009951Y002714D01*
X009967Y002707D01*
X009984Y002703D01*
X010001Y002701D01*
X010001Y003701D02*
X010151Y003701D01*
X010201Y003751D01*
X012101Y003751D01*
X012151Y003701D01*
X012301Y003701D01*
X012318Y003703D01*
X012335Y003707D01*
X012351Y003714D01*
X012365Y003724D01*
X012378Y003737D01*
X012388Y003751D01*
X012395Y003767D01*
X012399Y003784D01*
X012401Y003801D01*
X012401Y004501D01*
X012399Y004518D01*
X012395Y004535D01*
X012388Y004551D01*
X012378Y004565D01*
X012365Y004578D01*
X012351Y004588D01*
X012335Y004595D01*
X012318Y004599D01*
X012301Y004601D01*
X012151Y004601D01*
X012101Y004551D01*
X010201Y004551D01*
X010151Y004601D01*
X010001Y004601D01*
X009984Y004599D01*
X009967Y004595D01*
X009951Y004588D01*
X009937Y004578D01*
X009924Y004565D01*
X009914Y004551D01*
X009907Y004535D01*
X009903Y004518D01*
X009901Y004501D01*
X009901Y003801D01*
X009903Y003784D01*
X009907Y003767D01*
X009914Y003751D01*
X009924Y003737D01*
X009937Y003724D01*
X009951Y003714D01*
X009967Y003707D01*
X009984Y003703D01*
X010001Y003701D01*
X010001Y004701D02*
X010151Y004701D01*
X010201Y004751D01*
X012101Y004751D01*
X012151Y004701D01*
X012301Y004701D01*
X012318Y004703D01*
X012335Y004707D01*
X012351Y004714D01*
X012365Y004724D01*
X012378Y004737D01*
X012388Y004751D01*
X012395Y004767D01*
X012399Y004784D01*
X012401Y004801D01*
X012401Y005501D01*
X012399Y005518D01*
X012395Y005535D01*
X012388Y005551D01*
X012378Y005565D01*
X012365Y005578D01*
X012351Y005588D01*
X012335Y005595D01*
X012318Y005599D01*
X012301Y005601D01*
X012151Y005601D01*
X012101Y005551D01*
X010201Y005551D01*
X010151Y005601D01*
X010001Y005601D01*
X009984Y005599D01*
X009967Y005595D01*
X009951Y005588D01*
X009937Y005578D01*
X009924Y005565D01*
X009914Y005551D01*
X009907Y005535D01*
X009903Y005518D01*
X009901Y005501D01*
X009901Y004801D01*
X009903Y004784D01*
X009907Y004767D01*
X009914Y004751D01*
X009924Y004737D01*
X009937Y004724D01*
X009951Y004714D01*
X009967Y004707D01*
X009984Y004703D01*
X010001Y004701D01*
X008401Y006651D02*
X007901Y006651D01*
X007651Y006901D01*
X007401Y006651D01*
X006901Y006651D01*
X006651Y006901D01*
X006401Y006651D01*
X005901Y006651D01*
X005651Y006901D01*
X005651Y008401D01*
X005901Y008651D01*
X006401Y008651D01*
X006651Y008401D01*
X006901Y008651D01*
X007401Y008651D01*
X007651Y008401D01*
X007901Y008651D01*
X008401Y008651D01*
X008651Y008401D01*
X008651Y006901D01*
X008401Y006651D01*
X002051Y007401D02*
X002053Y007467D01*
X002059Y007532D01*
X002069Y007597D01*
X002082Y007662D01*
X002100Y007725D01*
X002121Y007788D01*
X002146Y007848D01*
X002175Y007908D01*
X002207Y007965D01*
X002242Y008021D01*
X002281Y008074D01*
X002323Y008125D01*
X002367Y008173D01*
X002415Y008218D01*
X002465Y008261D01*
X002518Y008300D01*
X002573Y008337D01*
X002630Y008370D01*
X002689Y008399D01*
X002749Y008425D01*
X002811Y008447D01*
X002874Y008466D01*
X002938Y008480D01*
X003003Y008491D01*
X003069Y008498D01*
X003135Y008501D01*
X003200Y008500D01*
X003266Y008495D01*
X003331Y008486D01*
X003396Y008473D01*
X003459Y008457D01*
X003522Y008437D01*
X003583Y008412D01*
X003643Y008385D01*
X003701Y008354D01*
X003757Y008319D01*
X003811Y008281D01*
X003862Y008240D01*
X003911Y008196D01*
X003957Y008149D01*
X004001Y008100D01*
X004041Y008048D01*
X004078Y007993D01*
X004112Y007937D01*
X004142Y007878D01*
X004169Y007818D01*
X004192Y007757D01*
X004211Y007694D01*
X004227Y007630D01*
X004239Y007565D01*
X004247Y007500D01*
X004251Y007434D01*
X004251Y007368D01*
X004247Y007302D01*
X004239Y007237D01*
X004227Y007172D01*
X004211Y007108D01*
X004192Y007045D01*
X004169Y006984D01*
X004142Y006924D01*
X004112Y006865D01*
X004078Y006809D01*
X004041Y006754D01*
X004001Y006702D01*
X003957Y006653D01*
X003911Y006606D01*
X003862Y006562D01*
X003811Y006521D01*
X003757Y006483D01*
X003701Y006448D01*
X003643Y006417D01*
X003583Y006390D01*
X003522Y006365D01*
X003459Y006345D01*
X003396Y006329D01*
X003331Y006316D01*
X003266Y006307D01*
X003200Y006302D01*
X003135Y006301D01*
X003069Y006304D01*
X003003Y006311D01*
X002938Y006322D01*
X002874Y006336D01*
X002811Y006355D01*
X002749Y006377D01*
X002689Y006403D01*
X002630Y006432D01*
X002573Y006465D01*
X002518Y006502D01*
X002465Y006541D01*
X002415Y006584D01*
X002367Y006629D01*
X002323Y006677D01*
X002281Y006728D01*
X002242Y006781D01*
X002207Y006837D01*
X002175Y006894D01*
X002146Y006954D01*
X002121Y007014D01*
X002100Y007077D01*
X002082Y007140D01*
X002069Y007205D01*
X002059Y007270D01*
X002053Y007335D01*
X002051Y007401D01*
X002101Y007401D02*
X002301Y007401D01*
X002201Y007301D02*
X002201Y007501D01*
X002551Y006151D02*
X001751Y006151D01*
X001651Y006051D01*
X001651Y005251D01*
X001751Y005151D01*
X001651Y005051D01*
X001651Y004251D01*
X001751Y004151D01*
X002551Y004151D01*
X002651Y004251D01*
X002651Y005051D01*
X002551Y005151D01*
X002651Y005251D01*
X002651Y006051D01*
X002551Y006151D01*
X015151Y006051D02*
X015151Y005251D01*
X015251Y005151D01*
X015151Y005051D01*
X015151Y004251D01*
X015251Y004151D01*
X016051Y004151D01*
X016151Y004251D01*
X016151Y005051D01*
X016051Y005151D01*
X016151Y005251D01*
X016151Y006051D01*
X016051Y006151D01*
X015251Y006151D01*
X015151Y006051D01*
D14*
X012571Y005151D03*
X012571Y004151D03*
X012571Y003151D03*
X012571Y002151D03*
X009731Y002151D03*
X009731Y003151D03*
X009731Y004151D03*
X009731Y005151D03*
D15*
X003651Y004571D03*
X003651Y001731D03*
D16*
X006551Y001201D02*
X006551Y000901D01*
X006551Y000601D01*
X006751Y000601D02*
X006751Y000901D01*
X006751Y001201D01*
M02*
